<svg preserveAspectRatio="none" width="100%" height="100%" overflow="visible" style="display: block;" viewBox="0 0 212 32.5463" fill="none" xmlns="http://www.w3.org/2000/svg">
<path id="logo-horizontal" fill-rule="evenodd" clip-rule="evenodd" d="M14.7436 27.2591C15.0445 26.6717 15.2852 25.7905 15.3454 25.1442C15.3454 25.1442 15.7065 21.0319 15.7667 19.6807C15.7667 18.7408 14.9242 16.6259 14.5029 15.6272C13.7758 14.0183 12.5412 13.5148 10.7047 12.7657C10.2612 12.5848 9.78251 12.3896 9.26742 12.1611C7.88333 11.5736 4.51335 10.3399 4.51335 10.3399C3.8514 10.1049 3.61068 9.45868 3.8514 8.81246C4.09211 8.16624 4.9346 7.93125 5.53638 8.16624C6.55116 8.51776 7.51251 8.88667 8.69166 9.33914L8.69167 9.33915C9.68021 9.71848 10.8218 10.1566 12.2763 10.6924C14.2805 11.4405 15.2454 10.9485 16.5848 10.2655L16.6693 10.2224C16.7709 10.1666 16.8731 10.1128 16.975 10.0592L16.9751 10.0592C17.8393 9.60427 18.6806 9.16146 18.8959 7.63751C18.9532 7.16226 19.1331 5.82227 19.3254 4.3899L19.3255 4.38951C19.5373 2.81201 19.7641 1.12255 19.8588 0.352835C19.8588 0.294087 19.7986 0.23534 19.7384 0.23534C18.7756 0.0590974 17.8127 0.000350047 16.7897 0.000350047C7.52226 -0.0583974 0 7.28503 0 16.2734C0 23.7343 5.17531 30.079 12.2161 31.9589C12.3365 31.9589 12.4569 31.9589 12.4569 31.8414L14.7436 27.2591ZM33.3987 16.9782C33.0377 25.4378 25.9367 32.3113 17.271 32.5463C16.6091 32.5463 15.9471 32.5463 15.2851 32.4875C15.1648 32.4875 15.1046 32.3113 15.1648 32.2525L17.5117 28.199C17.8728 27.6115 18.1135 27.024 18.1737 26.319L18.6551 22.7942C18.7153 22.0892 19.0764 21.3843 19.7383 21.1493L20.8817 20.8555C21.5437 20.6205 22.0853 20.8555 22.3862 21.443C22.6269 21.8542 23.2286 23.0292 23.4694 23.4992C23.6499 23.7929 23.5897 24.1454 23.4092 24.3216C23.1107 24.6546 22.85 24.9434 22.6057 25.214L22.6055 25.2142C22.1602 25.7074 21.7692 26.1405 21.3029 26.6715C20.8215 27.2002 20.4003 28.0227 21.2428 28.7277C22.0251 29.4326 22.8074 28.6689 23.2888 28.199C23.8906 27.6115 24.8535 26.4953 25.4552 25.7903C25.9968 25.2028 26.2977 24.7916 26.3579 24.0279C26.3579 23.7341 26.3579 23.4404 26.2376 23.0879C26.1251 22.7586 25.6844 21.6858 25.1178 20.3067L25.1176 20.3062C24.4713 18.733 23.6613 16.7612 22.9879 15.0395C21.9047 12.2197 21.3631 9.34103 21.7242 6.34492L22.326 0.940154C22.326 0.881407 22.3862 0.82266 22.5065 0.82266C29.0659 3.29005 33.6996 9.63477 33.3987 16.9782ZM13.6004 2.64398C11.8553 2.82022 10.5314 4.34766 10.7119 6.05133C10.8924 7.75501 12.4571 8.9887 14.2022 8.87121C15.9474 8.69496 17.2713 7.16753 17.0908 5.46386C16.9102 3.76018 15.3456 2.46774 13.6004 2.64398ZM200.378 5.18248C193.921 5.18248 188.756 9.53789 188.756 16.2385C188.756 22.9392 193.921 27.2946 200.378 27.2946C206.835 27.2946 212 22.9392 212 16.2385C212 9.62165 206.835 5.18248 200.378 5.18248ZM195.197 16.5152C195.197 19.7154 197.428 21.7668 200.518 21.7668C203.607 21.7668 205.839 19.7154 205.839 16.5152C205.839 13.315 203.607 11.2636 200.518 11.2636C197.428 11.2636 195.197 13.315 195.197 16.5152ZM153.049 5.18248C146.592 5.18248 141.427 9.53789 141.427 16.2385C141.427 22.9392 146.592 27.2946 153.049 27.2946C159.505 27.2946 164.671 22.9392 164.671 16.2385C164.671 9.62165 159.505 5.18248 153.049 5.18248ZM147.588 16.5152C147.588 19.7154 149.819 21.7668 152.909 21.7668C155.998 21.7668 158.23 19.7154 158.23 16.5152C158.23 13.315 155.998 11.2636 152.909 11.2636C149.819 11.2636 147.588 13.315 147.588 16.5152ZM119.262 5.7355H135.825V27.2106H129.56V11.378H124.668L124.153 18.7048C124.134 18.9021 124.116 19.0988 124.098 19.2945L124.098 19.2948L124.098 19.2952C123.704 23.5255 123.354 27.2948 117.202 27.2948H114.541L115.314 22.0734C118.422 21.999 118.45 21.4645 119.006 10.5978C119.079 9.16434 119.162 7.55114 119.262 5.7355ZM88.2169 16.2385C88.2169 9.53789 93.3823 5.18248 99.839 5.18248C106.296 5.18248 111.461 9.62165 111.461 16.2385C111.461 22.9392 106.296 27.2946 99.839 27.2946C93.3823 27.2946 88.2169 22.9392 88.2169 16.2385ZM99.9788 21.7668C96.8891 21.7668 94.6578 19.7154 94.6578 16.5152C94.6578 13.315 96.8891 11.2636 99.9788 11.2636C103.068 11.2636 105.3 13.315 105.3 16.5152C105.3 19.7154 103.068 21.7668 99.9788 21.7668ZM56.1086 21.2708C52.6927 21.2708 49.6184 20.6852 49.6184 16.1675C49.6184 12.9047 51.4117 11.3151 54.9984 11.3987C56.7063 11.3987 58.6705 11.7334 60.1222 12.2354L62.1718 7.04834C59.9514 5.96074 57.3041 5.45877 54.7422 5.45877C47.398 5.45877 43.1282 10.0602 43.1282 16.4184C43.1282 24.0317 48.4228 27.2945 54.7422 27.2945C57.1333 27.2945 59.6098 26.8762 61.6594 26.2069L61.574 20.5179C60.0368 20.9362 57.9873 21.2708 56.1086 21.2708ZM66.9323 5.7355H85.6958L84.592 11.244H79.1583V27.0184H72.9604V11.3275H66.9323V5.7355ZM186.498 5.81897L186.515 5.7355V5.81897H186.498ZM186.498 5.81897H167.191L168.293 11.3275H173.717V27.0184H179.989V11.244H185.413L186.498 5.81897Z" fill="var(--fill-0, white)"/>
</svg>
