<svg preserveAspectRatio="none" width="100%" height="100%" overflow="visible" style="display: block;" viewBox="0 0 136 32" fill="none" xmlns="http://www.w3.org/2000/svg">
<g id="Group 1077238486">
<path id="Vector" d="M130.811 32H4L5.19746 28.9461H132.014L130.811 32Z" fill="var(--fill-0, white)"/>
<path id="Vector_2" d="M94.8469 23.6099C94.6453 24.328 93.9819 24.7658 93.3666 24.5871C92.7497 24.4087 92.4134 23.6818 92.615 22.9637C92.8167 22.2456 93.4795 21.8077 94.0959 21.9865C94.7117 22.1648 95.0486 22.8917 94.8469 23.6099ZM96.6933 13.6973C96.6933 13.6973 96.5632 17.5356 94.0879 19.7191L96.6933 13.6973ZM43.7063 23.2104C43.3322 24.0852 42.3994 24.5478 41.7015 24.2397C41.003 23.9316 40.8022 22.9791 41.1766 22.1043C41.5514 21.2295 42.4396 20.7811 43.1375 21.0896C43.836 21.3977 44.0803 22.3356 43.7063 23.2104ZM25.7611 9.32987C25.7611 9.32987 26.673 12.8371 22.8298 17.0064L25.7611 9.32987ZM130.308 23.9175C129.721 23.9175 129.922 23.2356 129.922 23.2356L131.844 18.6576L126.227 18.6659L125.206 21.0958H128.073L126.885 23.9175H114.499C113.869 23.9431 114.02 23.4249 114.02 23.4249L115.733 18.6615L113.072 18.6659L111.186 23.8217C111.117 23.9859 110.874 24.2671 110.428 24.1647C109.942 24.0115 110.208 23.3256 110.208 23.3256L111.738 18.6659L109.071 18.6642L107.341 23.9175L96.5306 23.9211C97.2146 21.4396 95.2605 20.4469 95.2605 20.4469C101.904 13.896 96.4487 8.77726 96.4487 8.77726L90.0961 23.9175C90.0961 23.9175 79.0868 23.9263 77.9536 23.9175C76.8211 23.9091 77.19 23.3296 77.4003 23.142C78.3489 22.265 82.2656 18.6607 82.2656 18.6607H78.8462L75.2852 21.7265L79.5302 11.6132H76.2087L71.6429 23.9091C71.6429 23.9091 60.3563 23.9135 58.3152 23.9145C58.0963 23.9145 57.897 23.7802 57.8208 23.5714C57.6633 23.1349 57.689 22.5867 57.9337 22.0765C58.3518 21.2012 59.2524 20.7687 59.945 21.1103C60.3449 21.3076 60.5866 21.7195 60.6404 22.2005H62.8363C62.8649 20.6967 62.2164 19.3523 61.0145 18.7595C59.2243 17.8763 56.8959 18.9943 55.8143 21.2564C55.392 22.1401 55.2257 23.0665 55.282 23.9211H45.9279C46.7002 21.734 46.0348 19.4838 44.2992 18.7176C42.4674 17.9086 40.1362 19.0844 39.1544 21.3791C38.7907 22.2297 38.6346 23.1076 38.6751 23.9175H38.6731H29.7816C28.2189 23.8186 28.725 22.2336 28.725 22.2336L34.2938 9.03239H30.1905L26.0865 19.355C24.7792 22.0769 23.5814 22.8185 23.3329 22.9204C21.3126 23.7489 21.6902 21.241 21.6902 21.241C32.3397 10.4219 25.4027 0 25.4027 0L18.0754 20.6456C7.71868 25.2112 2.73582 19.1567 2.73582 19.1567L0 24.7151C9.28232 30.2738 17.5867 24.219 17.5867 24.219C18.251 26.244 19.172 27.1237 20.1396 27.3581C22.9827 27.8939 25.0121 24.8144 25.0121 24.8144C25.6321 26.7737 27.2539 26.9494 27.4789 26.9525C27.704 26.956 35.9792 26.9525 35.9792 26.9525C38.1284 26.9525 39.0783 25.5947 39.1021 25.5952C39.4149 26.2083 39.8911 26.6996 40.5297 26.9816C41.9626 27.6145 43.7696 27.005 44.9595 25.6128C45.404 26.8801 46.4994 26.9525 46.4994 26.9525C46.4994 26.9525 51.9462 26.96 53.2404 26.9525C54.501 26.9458 55.6909 25.6901 55.7529 25.6243C56.0623 26.1986 56.5537 26.9144 57.4192 26.9525C57.4192 26.9525 67.7474 26.9502 68.4968 26.9525C69.5594 26.956 71.0477 25.6053 71.0477 25.6053L70.5024 26.9525H73.0952L74.0095 24.7786C74.639 26.6796 76.1228 26.9494 76.3089 26.9525C76.4946 26.956 87.654 26.9525 87.654 26.9525C89.2821 26.9781 90.3814 25.5886 90.3814 25.5886C90.9921 26.7362 91.6629 27.1317 92.3739 27.2093C94.2322 27.4119 95.4559 26.0056 95.4559 26.0056C95.6512 26.7997 96.3627 26.9533 96.5329 26.9525C96.7025 26.9515 104.631 26.9525 104.631 26.9525C106.351 26.782 107.291 25.6314 107.291 25.6314C107.679 26.8545 108.588 27.1537 109.213 27.2221C110.971 27.3422 111.87 25.6084 111.87 25.6084C112.485 26.7909 113.481 26.9533 113.726 26.9525C113.972 26.9515 124.56 26.9525 124.56 26.9525C126.026 26.8536 126.708 25.597 126.708 25.597C127.048 26.7167 127.699 26.9533 128.018 26.9525C128.335 26.9515 134.722 26.9525 134.722 26.9525L136 23.9153L130.308 23.9175Z" fill="var(--fill-0, white)"/>
</g>
</svg>
