<svg preserveAspectRatio="none" width="100%" height="100%" overflow="visible" style="display: block;" viewBox="0 0 223 32" fill="none" xmlns="http://www.w3.org/2000/svg">
<g id="Frame 2131329159" clip-path="url(#clip0_0_119)">
<g id="&#208;&#186;&#209;&#131;&#208;&#187;&#209;&#140;&#209;&#130;&#209;&#131;&#209;&#128;&#208;&#176; &#208;&#188;&#208;&#190;&#209;&#129;&#208;&#186;&#208;&#178;&#209;&#139;">
<path d="M8.55907 24.1605L3.91815 17.3226H3.89346V24.1605H-0.179688V10.8796H3.89346V17.1251H3.91815L8.53438 10.8796H13.0025L8.06535 17.1004L13.274 24.1605H8.55907Z" fill="var(--fill-0, white)"/>
<path d="M15.9671 28.4806H14.6588V25.5429H15.4734C17.152 25.5429 17.4976 25.4195 17.8926 24.4321L18.016 24.0865L13.0542 10.8796H17.5223L19.9662 19.1987L22.5829 10.8796H26.9523L21.7436 24.1605C20.4105 27.5425 19.4231 28.4806 15.9671 28.4806Z" fill="var(--fill-0, white)"/>
<path d="M39.5034 10.8796V24.1605H35.4303V13.7678H32.4927L32.4186 15.0268C32.0236 21.8401 30.4931 24.1605 26.7409 24.1605H25.9756V21.2723H26.3459C27.7036 21.2723 28.2961 20.1861 28.5676 15.0268L28.7898 10.8796H39.5034Z" fill="var(--fill-0, white)"/>
<path d="M46.7811 15.0021H49.4225C53.3722 15.0021 55.0261 16.4339 55.0261 19.5196C55.0261 23.0003 53.3475 24.1605 49.6199 24.1605H42.7079V10.8796H46.7811V15.0021ZM46.7811 21.4204H49.2003C50.558 21.4204 51.2245 20.8527 51.2245 19.4703C51.2245 18.31 50.558 17.7423 49.2003 17.7423H46.7811V21.4204Z" fill="var(--fill-0, white)"/>
<path d="M67.6857 13.7678H63.3903V24.1605H59.3172V13.7678H55.0219V10.8796H67.6857V13.7678Z" fill="var(--fill-0, white)"/>
<path d="M70.9681 28.4806H69.6597V25.5429H70.4744C72.153 25.5429 72.4986 25.4195 72.8936 24.4321L73.017 24.0865L68.0552 10.8796H72.5233L74.9672 19.1987L77.5839 10.8796H81.9532L76.7446 24.1605C75.4115 27.5425 74.4241 28.4806 70.9681 28.4806Z" fill="var(--fill-0, white)"/>
<path d="M87.6427 10.8796V12.6817C88.5067 11.2252 90.2841 10.5834 91.7159 10.5834C95.1472 10.5834 97.5664 13.1754 97.5664 17.5201C97.5664 21.8648 95.1472 24.4815 91.7159 24.4815C90.2841 24.4815 88.5067 23.8396 87.6427 22.3832V28.4806H83.5696V10.8796H87.6427ZM90.3828 13.7432C88.7783 13.7432 87.4452 14.78 87.4452 17.5201C87.4452 20.2602 88.7783 21.3217 90.3828 21.3217C92.0121 21.3217 93.3451 19.9887 93.3451 17.5201C93.3451 15.0515 92.0121 13.7432 90.3828 13.7432Z" fill="var(--fill-0, white)"/>
<path d="M107.743 15.8661V15.3477C107.743 13.7678 106.978 13.2248 105.497 13.2248C104.188 13.2248 103.3 13.8913 103.127 15.1749H99.3253C99.5227 12.6817 101.893 10.46 105.842 10.46C109.669 10.46 111.841 12.0152 111.767 16.0389L111.717 18.9272V20.3096C111.717 21.766 111.816 23.3212 112.014 24.1605H108.015L107.965 22.556C106.978 23.9631 105.398 24.4815 103.497 24.4815C100.979 24.4815 98.9056 23.0003 98.9056 20.5811C98.9056 17.3226 102.584 16.2611 107.743 15.8661ZM107.842 18.5816V18.2607C105.003 18.5322 103.102 18.8531 103.102 20.2849C103.102 21.1489 103.917 21.7167 104.978 21.7167C106.608 21.7167 107.842 21.0255 107.842 18.5816Z" fill="var(--fill-0, white)"/>
<path d="M137.033 10.8796V24.1605H133.207V14.4097L129.677 24.1605H127.134L123.629 14.4344V24.1605H119.803V10.8796H125.382L128.541 19.6431L131.528 10.8796H137.033Z" fill="var(--fill-0, white)"/>
<path d="M146.343 13.6444C144.738 13.6444 143.455 14.6319 143.455 17.4707C143.455 20.2602 144.689 21.3217 146.343 21.3217C147.997 21.3217 149.231 20.2602 149.231 17.4707C149.231 14.6319 147.947 13.6444 146.343 13.6444ZM146.343 10.4846C150.021 10.4846 153.378 12.657 153.378 17.4707C153.378 22.2844 150.021 24.4815 146.343 24.4815C142.665 24.4815 139.307 22.2844 139.307 17.4707C139.307 12.657 142.665 10.4846 146.343 10.4846Z" fill="var(--fill-0, white)"/>
<path d="M161.79 10.4846C164.555 10.4846 167.591 11.7436 168.381 15.7427H164.579C164.209 14.1875 163.246 13.6444 162.037 13.6444C160.58 13.6444 159.148 14.6319 159.148 17.4707C159.148 20.3589 160.58 21.3217 162.037 21.3217C163.543 21.3217 164.456 20.5317 164.752 19.2728H168.554C167.64 23.2225 164.456 24.4815 161.79 24.4815C157.42 24.4815 155.001 21.6673 155.001 17.446C155.001 13.2248 157.766 10.4846 161.79 10.4846Z" fill="var(--fill-0, white)"/>
<path d="M179.383 24.1605L174.743 17.3226H174.718V24.1605H170.645V10.8796H174.718V17.1251H174.743L179.359 10.8796H183.827L178.89 17.1004L184.098 24.1605H179.383Z" fill="var(--fill-0, white)"/>
<path d="M185.977 10.8796H193.308C196.271 10.8796 198.418 11.5708 198.418 14.3603C198.418 15.5699 197.851 16.508 196.839 17.0264C198.098 17.446 198.962 18.3594 198.962 20.0133C198.962 23.0003 196.789 24.1605 193.555 24.1605H185.977V10.8796ZM190.05 16.2364H192.79C193.876 16.2364 194.493 15.6933 194.493 14.8787C194.493 14.1135 193.876 13.6197 192.79 13.6197H190.05V16.2364ZM190.05 18.4828V21.4204H192.963C194.321 21.4204 194.987 20.828 194.987 19.964C194.987 19.0012 194.321 18.4828 192.963 18.4828H190.05Z" fill="var(--fill-0, white)"/>
<path d="M207.793 24.1605H201.671V10.8796H205.768V15.0021H207.595C211.545 15.0021 213.199 16.4339 213.199 19.5196C213.199 23.0003 211.52 24.1605 207.793 24.1605ZM205.768 17.7423V21.4204H207.373C208.731 21.4204 209.397 20.8527 209.397 19.4703C209.397 18.31 208.731 17.7423 207.373 17.7423H205.768ZM219 24.1605H214.902V10.8796H219V24.1605Z" fill="var(--fill-0, white)"/>
</g>
</g>
<defs>
<clipPath id="clip0_0_119">
<rect width="223" height="32" fill="white"/>
</clipPath>
</defs>
</svg>
