<svg preserveAspectRatio="none" width="100%" height="100%" overflow="visible" style="display: block;" viewBox="0 0 232 40" fill="none" xmlns="http://www.w3.org/2000/svg">
<g id="Layer_1">
<path id="Vector" d="M78.1081 13.4092H59.5703L58.003 16.8228H75.088C75.4072 16.8228 75.5504 17.0838 75.4072 17.3971L75.1412 17.9754C75.0647 18.1355 74.9464 18.2729 74.7984 18.3738C74.6504 18.4746 74.4778 18.5353 74.2982 18.5497H57.2132L53.252 27.2042H57.7166L60.0655 22.1239H74.2082C76.7004 21.9914 79.5281 19.9071 80.4816 17.5176C81.3737 15.2646 80.3465 13.4935 78.1081 13.4092Z" fill="var(--fill-0, white)"/>
<path id="Vector_2" d="M97.0962 13.4541L97.0918 13.4585L97.105 13.4541H97.0962Z" fill="var(--fill-0, white)"/>
<path id="Vector_3" d="M19.3186 23.172C19.2539 23.3358 19.1421 23.4776 18.9968 23.5803C18.8515 23.6829 18.679 23.742 18.5002 23.7503H5.78565L8.31464 16.8227H26.0667L28.2519 13.4131H5.04087L0.015625 27.2081H18.7498C21.2051 27.2081 23.9101 25.3366 24.794 22.927C25.6779 20.5174 24.4093 18.5857 21.9949 18.5536H9.36225L8.02409 22.0475H19.1386C19.2088 22.046 19.2782 22.0622 19.3402 22.0947C19.4022 22.1271 19.4546 22.1747 19.4925 22.2328C19.5303 22.2909 19.5522 22.3576 19.5562 22.4264C19.5601 22.4952 19.546 22.5639 19.515 22.6258L19.3186 23.172Z" fill="var(--fill-0, white)"/>
<path id="Vector_4" d="M43.1408 27.2082H32.2432C28.7321 27.2082 27.1566 24.397 28.728 20.9593L29.3214 19.6661C30.9051 16.2124 35.0505 13.4172 38.5534 13.4092H49.451C52.9662 13.4092 54.5376 16.2204 52.9621 19.6661L52.3728 20.9593C50.7851 24.4131 46.6437 27.2082 43.1408 27.2082ZM37.1293 16.8228C36.5033 16.8758 35.9025 17.0891 35.3868 17.4415C34.8712 17.7939 34.4589 18.273 34.1911 18.8308L32.8284 21.7705C32.3292 22.8669 32.8284 23.7785 33.9456 23.7785H44.5853C45.2109 23.7256 45.8112 23.5123 46.3262 23.1599C46.8412 22.8074 47.2527 22.3283 47.5195 21.7705L48.8822 18.8308C49.3855 17.7304 48.8822 16.8228 47.7691 16.8228H37.1293Z" fill="var(--fill-0, white)"/>
<path id="Vector_5_2" d="M106.414 13.4092C105.476 13.4417 104.561 13.7025 103.75 14.1682L86.1783 23.3287L90.7002 13.4092L85.499 15.0156L80.8093 25.2644C80.2078 26.5496 80.7807 27.6018 82.0902 27.6138H82.9373C83.8732 27.5852 84.7866 27.3256 85.5931 26.8588L103.19 17.6943L98.8233 27.2082H103.304L108.546 15.7385C109.136 14.4533 108.546 13.4092 107.237 13.4092H106.418H106.414Z" fill="var(--fill-0, white)"/>
<path id="Vector_6" d="M195.342 27.2082H184.445C180.933 27.2082 179.362 24.397 180.929 20.9593L181.523 19.6661C183.106 16.2124 187.252 13.4172 190.755 13.4092H201.652C205.168 13.4092 206.743 16.2204 205.163 19.6661L204.574 20.9593C202.991 24.4131 198.845 27.2082 195.342 27.2082ZM189.331 16.8228C188.705 16.8758 188.104 17.0891 187.588 17.4415C187.073 17.7939 186.66 18.273 186.392 18.8308L185.034 21.7705C184.531 22.8669 185.034 23.7785 186.147 23.7785H196.787C197.413 23.7255 198.014 23.5122 198.529 23.1598C199.045 22.8074 199.457 22.3283 199.725 21.7705L201.084 18.8308C201.587 17.7304 201.084 16.8228 199.97 16.8228H189.331Z" fill="var(--fill-0, white)"/>
<path id="Vector_7" d="M227.87 13.4092H216.977C213.458 13.4092 209.324 16.2204 207.741 19.6661L207.172 20.9191C205.601 24.3689 207.172 27.164 210.691 27.168H213.9L213.458 28.1479H217.934L218.376 27.1801H221.585C225.104 27.1801 229.233 24.3689 230.817 20.9312L231.386 19.6782C232.961 16.2124 231.39 13.4132 227.87 13.4092ZM211.272 21.7585L212.619 18.8187C212.886 18.2609 213.299 17.7819 213.814 17.4295C214.33 17.0771 214.931 16.8637 215.557 16.8107H218.63L216.858 20.6862L215.463 23.7384H212.402C211.268 23.7303 210.765 22.8548 211.272 21.7585ZM227.306 18.8187L225.959 21.7585C225.692 22.3157 225.28 22.7944 224.765 23.1468C224.25 23.4991 223.65 23.7128 223.025 23.7665H219.94L223.107 16.8389H226.193C227.31 16.8268 227.809 17.7063 227.306 18.8187Z" fill="var(--fill-0, white)"/>
<path id="Vector_8" d="M134.265 23.7316H115.253C114.131 23.7316 113.616 22.8361 114.131 21.7236L115.457 18.8281C115.725 18.2692 116.138 17.7894 116.654 17.4368C117.171 17.0843 117.773 16.8716 118.4 16.8201H141.197L138.108 13.3984H119.828C116.304 13.3984 112.175 16.2096 110.592 19.6554L110.039 20.8602C108.468 24.314 109.994 27.1493 113.505 27.1533H126.334L134.265 23.7316Z" fill="var(--fill-0, white)"/>
<path id="Vector_9" d="M191.196 10H184.628L164.343 18.6143L159.572 13.4096H153.004L159.621 20.6224L136.078 30.6222H142.642L166.18 20.6224L172.208 27.2086H178.776L170.911 18.6143L191.196 10Z" fill="var(--fill-0, white)"/>
<path id="Vector_10" d="M148.015 13.4092H141.447L148.064 20.6219L124.521 30.6218H131.089L154.628 20.6219L148.015 13.4092Z" fill="var(--fill-0, #E11229)"/>
</g>
</svg>
