<svg preserveAspectRatio="none" width="100%" height="100%" overflow="visible" style="display: block;" viewBox="0 0 105 150" fill="none" xmlns="http://www.w3.org/2000/svg">
<path id="Kamaz" fill-rule="evenodd" clip-rule="evenodd" d="M34.8928 0H35.3752C35.2144 1.45867 35.2144 2.8363 35.134 4.29498C36.5008 4.05186 37.8675 3.80875 39.2343 3.4846C39.7167 3.40357 40.1187 3.32253 40.6011 3.32253C40.3599 3.64668 40.1187 3.97083 39.9579 4.37601C39.7971 4.7812 39.7167 5.10535 39.6363 5.51053C40.9227 5.67261 42.1286 5.83468 43.3346 5.91572C43.5758 5.99676 43.8974 5.99676 44.1386 6.0778C45.5054 6.56402 47.0329 6.72609 48.5605 6.72609C51.0528 6.72609 53.5452 6.40194 56.0375 6.56402C56.8415 6.64506 57.6455 6.72609 58.4495 6.96921C58.8515 7.37439 59.0927 7.86062 59.173 8.34684C59.2534 8.75203 59.3338 9.23825 59.2534 9.64344C60.1378 9.72447 60.9418 10.1297 61.5046 10.778C61.9066 11.1831 62.1478 11.9125 61.9066 12.4797C61.7458 13.128 61.183 13.5332 60.5398 13.8574C60.379 13.9384 60.1378 13.8574 59.8966 13.9384C58.6103 13.9384 57.4043 14.0194 56.1983 14.3436C55.8767 14.3436 55.6355 14.5057 55.3139 14.5867C55.3139 14.9109 55.3943 15.154 55.4747 15.4781C56.9219 15.4781 58.3691 15.5592 59.8162 15.6402C60.0574 17.0178 59.4142 18.7196 58.1279 19.3679C57.2435 19.7731 56.1983 19.611 55.3943 19.0438C54.2688 19.1248 53.1432 19.2058 51.9372 19.2869C51.1332 19.3679 50.3293 19.53 49.5253 19.6921C49.1233 20.6645 48.1585 21.1507 47.2741 21.4749C45.6662 22.0421 43.8974 22.1232 42.1286 22.2042C41.807 24.9595 41.807 27.7147 41.9678 30.5511C41.9678 32.0097 42.0482 33.5494 42.0482 35.0081C43.9778 34.846 45.9074 34.5219 47.8369 34.684C49.3645 34.765 50.892 35.1702 52.4196 35.4943C54.2688 34.2788 56.2787 33.3063 58.2887 32.4149C58.8515 32.1718 59.4142 31.8476 60.0574 31.7666C63.4342 30.8752 66.9717 30.5511 70.4288 30.47C76.7802 30.389 83.2121 30.9562 89.5636 30.9562C89.9655 30.9562 90.4479 31.0373 90.8499 31.0373C90.5283 32.0097 89.8851 32.7391 89.242 33.4684C89.242 33.5494 89.1616 33.6305 89.0812 33.6305C88.1968 33.9546 87.232 34.1977 86.3476 34.5219C85.7848 34.684 85.1417 34.846 84.6593 35.1702C84.9809 35.5754 85.5436 35.7374 86.026 35.8995C85.8652 36.6288 85.3025 37.1151 84.6593 37.4392C82.6493 38.3306 80.3982 38.3306 78.3078 39.141C77.745 39.3841 77.1822 39.7083 77.0214 40.3566C77.1822 40.4376 77.343 40.5997 77.5842 40.7617C77.9058 40.9238 78.3078 41.0049 78.6294 41.1669C77.5038 41.6532 76.2979 41.9773 75.0919 42.2204C73.1623 42.5446 71.2328 42.4635 69.2228 42.2204C66.6501 41.8963 64.0773 41.329 61.5046 41.248C60.781 41.0859 60.2182 41.4911 59.575 41.6532C59.7358 42.0583 59.977 42.4635 60.1378 42.8687C60.781 44.3274 61.1026 45.7861 61.4242 47.3258C62.0674 50.9724 62.3086 54.7002 62.389 58.4279C62.4694 58.8331 62.389 59.2382 62.5498 59.5624C63.8361 62.0746 64.8813 64.7488 65.6853 67.423C66.2481 69.611 66.6501 71.799 66.9717 73.987C67.0521 74.3922 67.2129 74.7164 67.2933 75.1216C67.9364 76.5802 68.8208 77.8768 69.7052 79.0924C69.9464 79.4165 70.268 79.7407 70.3484 80.1459C71.2328 82.577 71.6348 85.0891 72.278 87.5203C72.3583 87.7634 72.5191 88.0065 72.5995 88.1686C73.7251 89.9514 74.8507 91.6532 75.8959 93.436C76.2175 94.4895 76.6998 95.4619 77.2626 96.3533C78.0666 97.731 78.951 98.9465 79.755 100.324C80.2374 101.216 80.8002 102.269 80.7198 103.404C80.157 103.485 79.6746 103.971 79.1922 104.295C78.6294 104.781 78.0666 105.348 77.745 105.916H71.7152C71.5544 105.105 71.474 104.295 71.3132 103.485C71.2328 102.836 71.072 102.269 70.8308 101.702C70.0268 101.864 69.1424 102.026 68.258 102.026C67.6149 102.026 66.8913 101.864 66.2481 101.459C65.7657 101.135 65.4441 100.567 65.2833 100C64.5597 100.405 63.8361 100.891 62.9518 101.135C61.9066 101.378 60.8614 101.297 59.8162 101.216C58.9319 99.2707 58.1279 97.3258 57.2435 95.2998C56.6807 94.9757 56.1983 94.5705 55.6355 94.1653C55.2335 93.9222 54.9923 93.5981 54.7512 93.2739C53.8668 91.9773 53.2236 90.4376 52.098 89.3031C51.4548 88.6548 50.6508 88.1686 49.8469 87.7634C49.7665 87.7634 49.6861 87.6823 49.6861 87.6823C48.8821 86.5478 48.2389 85.3323 47.1937 84.4408C46.3093 83.6305 45.1034 83.3063 43.9778 83.0632C43.1738 82.9011 42.3698 82.7391 41.6462 82.4959C40.3599 82.0908 39.1539 81.4425 37.8675 81.1183C37.5459 81.0373 37.2244 81.0373 36.8224 81.0373C37.4655 81.9287 38.0283 82.8201 38.5911 83.7115C39.5559 84.1167 40.6011 84.4408 41.4855 84.846C42.3698 85.7374 43.013 86.872 43.4954 88.0065C44.2994 89.8703 45.1034 91.7342 46.4701 93.1929C46.5505 93.2739 46.6309 93.2739 46.6309 93.3549C46.7917 92.7877 46.7113 92.1394 46.5505 91.5721C46.4701 91.41 46.3897 91.1669 46.3897 90.9238C47.6761 91.0049 49.0429 91.0859 50.1685 91.7342C51.0528 92.3015 51.6156 93.1929 51.9372 94.1653C52.098 94.8946 52.2588 95.624 52.2588 96.3533C51.8568 97.4068 51.2136 98.3793 50.3293 99.1086C49.5253 99.8379 48.3997 100.243 47.2741 100.081C46.1485 99.919 45.1034 99.1896 44.2994 98.3793C43.7366 97.731 43.2542 97.0827 42.8522 96.2723C42.7718 96.1102 42.611 96.1102 42.4502 96.0292C41.4051 95.3809 40.2795 94.8946 39.1539 94.3274C37.5459 93.517 35.938 92.7066 34.33 91.8963C34.2496 91.8152 34.1692 91.8152 34.0888 91.7342C32.8025 89.9514 31.9985 87.9254 30.7121 86.1426C30.3905 85.8185 30.1493 85.3323 29.7473 85.0891C27.7374 83.7925 25.647 82.577 24.0391 80.7942C23.9587 80.7131 23.9587 80.5511 23.9587 80.389C23.7175 79.0924 23.4763 77.7147 22.9939 76.4992C22.7527 76.013 22.5115 75.6078 22.2703 75.2026C22.1899 75.1216 22.1095 75.0405 22.0291 74.9595C20.8231 73.906 19.6172 72.9335 18.4916 71.8801C18.17 71.4749 17.768 71.1507 17.6876 70.6645C16.964 70.4214 16.4012 69.8541 15.9992 69.2869C15.356 68.1523 14.9541 66.9368 14.7129 65.6402C14.3109 63.6953 14.2305 61.6694 14.1501 59.7245C14.0697 56.2399 14.3109 52.7553 14.6325 49.2707C14.6325 48.9465 14.6325 48.6224 14.7933 48.2982C15.1953 47.0827 15.6776 45.7861 16.0796 44.5705C16.4816 43.3549 16.7228 42.1394 16.964 40.9238C17.2052 39.3031 17.2856 37.6823 17.366 36.0616C17.5268 33.1442 17.6876 30.2269 17.768 27.2285C17.768 27.1475 17.768 27.0665 17.8484 26.9044C18.3308 26.175 18.8936 25.4457 19.2956 24.6353C19.6172 24.1491 19.7779 23.5008 19.6172 22.9335C19.2956 22.2853 18.4916 21.9611 17.8484 21.637C18.3308 20.4214 19.2152 19.4489 20.0191 18.4765C20.9035 17.423 21.8683 16.4506 22.5115 15.154C22.5919 14.9919 22.7527 14.7488 22.8331 14.5867C22.8331 13.7763 22.5115 13.128 22.5115 12.3987C23.6371 11.5883 24.7626 10.94 25.8882 10.1297C26.9334 9.40032 27.9786 8.67099 28.8629 7.69854C30.2297 6.40194 31.1945 4.7812 31.8377 2.99838C31.9181 2.67423 32.2397 2.51216 32.4005 2.18801C33.124 1.37763 34.0084 0.648298 34.8928 0ZM42.0482 9.23825C42.2894 9.80551 42.8522 10.1297 43.4954 10.2107C44.1386 10.3728 44.8622 10.2107 45.3446 9.72447C45.2642 9.31929 45.1838 8.9141 44.8622 8.67099C44.5406 8.34684 44.0582 8.18476 43.6562 8.2658C43.013 8.42788 42.4502 8.75203 42.0482 9.23825ZM56.4395 9.5624C56.6003 9.96758 57.0827 10.2107 57.5651 10.2107C58.1279 10.2107 58.6103 9.80551 59.2534 9.64344C58.2887 9.31929 57.3239 9.07617 56.4395 8.83306C56.3591 9.07617 56.2787 9.31929 56.4395 9.5624ZM36.9832 21.799C36.6616 26.3371 36.2596 30.8752 36.8224 35.4133C37.144 37.5203 37.6263 39.7083 38.5107 41.6532C38.5107 35.3323 38.5911 29.0113 39.3147 22.6904C38.7519 22.0421 37.7871 21.9611 36.9832 21.799ZM41.8874 37.6013C42.0482 40.6807 42.1286 43.6791 42.9326 46.5964C43.1738 46.9206 43.415 47.1637 43.6562 47.4878C44.621 48.6224 45.6662 49.8379 46.6309 50.9724C48.2389 52.9173 49.7665 54.8622 50.892 57.1313C51.4548 58.2658 51.9372 59.5624 52.098 60.859C51.9372 61.1831 51.6156 61.4263 51.3744 61.5073C50.892 61.7504 50.3293 61.8314 49.9273 62.1556C49.6057 62.4797 49.6057 62.966 49.6861 63.4522H50.2489C50.8116 63.128 51.3744 62.7229 52.098 62.7229C52.6608 62.7229 53.2236 62.966 53.6256 63.2901C54.51 63.9384 55.0727 64.8298 55.7159 65.7212C56.3591 65.5592 57.0023 65.3971 57.5651 64.9919C57.8867 64.7488 58.1279 64.4246 58.1279 64.0194C57.8867 63.6143 57.6455 63.2091 57.4043 62.8039C57.0023 62.2366 56.6003 61.6694 56.0375 61.2642C55.4747 60.94 54.7512 60.778 54.0276 60.778C54.108 60.2107 54.1884 59.4814 54.6708 58.9951C55.0727 58.59 55.6355 58.5089 56.1179 58.3468C56.6807 58.1848 57.1631 57.9417 57.4847 57.5365C57.7259 57.2123 57.8867 56.7261 58.0475 56.4019C58.9319 53.8898 59.575 51.2156 59.575 48.5413C59.4946 47.0827 59.2534 45.624 58.6907 44.3274C58.2083 43.1929 57.4847 42.1394 56.6003 41.248C54.8315 39.5462 52.6608 38.4927 50.3293 37.7634C50.4096 38.4927 50.49 39.222 50.1685 39.8703C49.1233 39.3031 47.9977 38.7358 46.7917 38.4117C45.1838 37.8444 43.5758 37.6013 41.8874 37.6013ZM39.7167 55.4295C39.5559 55.7536 39.3147 56.2399 39.1539 56.6451C39.3951 57.2934 39.7167 57.8606 40.0383 58.5089C40.9227 58.9951 41.807 59.5624 42.4502 60.3728C42.8522 60.778 43.1738 61.2642 43.2542 61.9125C43.2542 62.3987 43.0934 62.966 42.8522 63.3711C42.4502 64.0194 41.807 64.5057 41.1639 64.8298C41.1639 65.154 41.0835 65.3971 41.1639 65.6402C41.2443 65.9643 41.4051 66.2075 41.4855 66.5316C42.2894 66.3695 43.0934 66.3695 43.7366 65.8023C44.2994 65.3971 44.5406 64.7488 44.8622 64.1005C44.9426 63.7763 45.023 63.3711 45.3446 63.128C46.1485 62.1556 47.1133 61.1831 47.6761 59.9676C47.7565 59.6434 47.9173 59.4003 47.7565 59.1572C47.5153 58.4279 47.1937 57.6985 46.7917 57.0502C46.2289 56.2399 45.3446 55.6726 44.3798 55.5105C42.8522 55.1864 41.2443 55.3485 39.7167 55.4295ZM23.6371 62.0746C23.7979 63.2091 23.9587 64.3436 24.441 65.3971C24.9234 66.2885 25.5666 66.9368 26.451 67.5041C27.4158 68.0713 28.6217 68.5575 29.6669 69.0438C31.9181 69.0438 34.1692 69.2869 36.34 69.8541C37.3851 69.4489 38.3499 68.8817 39.2343 68.2334V67.6661C38.5911 67.423 37.9479 67.5041 37.3047 67.342C37.0636 67.2609 36.8224 67.0178 36.5812 66.9368C35.2948 66.2885 33.8476 66.5316 32.6417 65.8833C32.4809 65.8023 32.4005 65.5592 32.2397 65.3971C30.7121 63.2901 28.6217 61.6694 26.451 60.1297C25.4058 60.6159 24.441 61.2642 23.6371 62.0746ZM58.6103 72.5284C59.0123 73.825 59.8966 74.9595 60.6202 76.013C60.6202 76.175 60.7006 76.175 60.8614 76.2561C61.5046 76.4992 62.1478 76.9044 62.7106 77.3906C63.5949 78.201 64.2381 79.0924 64.8813 80.1459C65.3637 81.0373 65.8461 82.0097 66.4089 82.9822C66.4089 83.7115 66.3285 84.3598 66.4089 85.0891C66.4089 85.7374 66.5697 86.4668 66.9717 87.034C67.2129 87.5203 67.6149 87.7634 68.0972 88.0065C68.4992 87.9254 68.9012 87.7634 69.3836 87.6823V86.2237C69.464 86.0616 69.3032 85.8995 69.2228 85.7374C67.6149 82.7391 65.8461 79.7407 64.4793 76.6613C64.2381 76.2561 64.1577 75.7699 63.9969 75.3647C63.7557 74.3922 63.5146 73.5008 63.0322 72.6094C62.6302 71.8801 62.0674 71.2318 61.2634 70.8266C60.5398 70.5024 59.7358 70.3404 58.8515 70.3404C58.3691 70.9887 58.3691 71.799 58.6103 72.5284ZM50.8116 73.4198C50.3293 73.987 49.8469 74.5543 49.5253 75.2026C49.2841 75.6888 49.1233 76.2561 49.3645 76.7423C49.6861 77.3906 50.2489 77.7147 50.7312 78.0389C51.8568 78.7682 52.902 79.4976 53.7864 80.47C54.6708 82.2528 55.4747 84.0357 56.4395 85.7374C57.1631 86.5478 58.0475 87.1961 58.8515 88.0065C59.7358 88.8169 60.5398 89.8703 60.7006 91.0859C62.389 92.1394 63.9969 93.1929 65.6049 94.1653C65.9265 93.9222 65.8461 93.517 65.7657 93.1929C65.6049 92.3825 65.2833 91.5721 64.9617 90.8428C64.8813 90.6807 64.8009 90.5186 64.6401 90.4376C64.2381 89.9514 63.8361 89.3841 63.5146 88.8169C62.3086 86.7099 61.9066 84.2788 60.9418 82.0908C60.4594 80.8752 59.8162 79.8217 58.9319 78.8493C57.9671 78.282 56.9219 77.6337 56.1179 76.8233C55.0727 75.8509 54.3492 74.6353 53.7864 73.4198C53.6256 73.0956 53.5452 72.7715 53.3844 72.5284C52.5 72.6904 51.696 73.0146 50.8116 73.4198ZM29.5061 75.0405C29.1041 75.6078 28.7021 76.3371 28.7021 77.0664C28.7825 77.7958 29.2649 78.363 29.7473 78.8493C30.6317 79.7407 31.6769 80.389 32.5613 81.2804C32.6417 81.3614 32.7221 81.5235 32.8025 81.6045C34.0084 83.3874 35.134 85.2512 36.0184 87.1961C36.742 87.034 37.3851 86.872 38.1087 86.6288V85.8995C36.8224 85.1702 35.8576 84.0357 35.134 82.7391C34.33 81.2804 33.928 79.6596 33.2848 78.1199C32.8025 77.0664 32.2397 76.094 31.4357 75.2836C31.2749 75.2026 31.1945 75.0405 31.0337 75.0405H29.5061ZM69.866 92.8687C69.6248 93.2739 69.6248 93.8412 69.5444 94.2464C70.1072 94.3274 70.67 94.4084 71.2328 94.4895C71.3132 94.3274 71.3936 94.2464 71.474 94.1653C71.474 94.2464 71.3936 94.4084 71.3132 94.4895C71.3936 96.0292 71.3936 97.5689 71.7152 99.1086C71.7956 99.5138 71.9564 100 72.278 100.405C72.6799 100 73.1623 99.6758 73.6447 99.3517C73.7251 99.2707 73.8055 99.2707 73.8055 99.1086C73.8859 98.7034 73.7251 98.3793 73.6447 97.9741C73.3231 97.2447 73.0015 96.5964 72.5995 95.9481C72.0368 94.8946 71.3936 93.9222 70.9112 92.8687H69.866ZM0 111.345H105V115.559H0V111.345ZM1.92956 125.041H9.40659V133.549H9.48698C9.88897 133.144 10.291 132.739 10.693 132.253C12.7029 130.227 14.7129 128.201 16.7228 126.094C17.1248 125.77 17.4464 125.365 17.768 125.041H24.843C22.4311 127.472 20.0191 129.822 17.5268 132.253C19.1348 136.224 20.7427 140.194 22.2703 144.165C22.4311 144.408 22.4311 144.652 22.5919 144.814C24.7626 138.169 26.853 131.605 29.0237 125.041H34.6516C36.742 131.28 38.8323 137.601 40.8423 143.841C40.9227 143.922 40.9227 144.084 41.0031 144.165V125.041H50.0881C51.1332 128.687 52.2588 132.253 53.304 135.9C53.6256 136.953 53.9472 137.925 54.1884 138.898C54.3492 138.817 54.3492 138.655 54.4296 138.574C55.8767 134.036 57.4043 129.498 58.8515 125.041H67.5345V144.084H67.6149C68.0972 142.382 68.7404 140.762 69.2228 139.141C70.4288 135.413 71.6348 131.767 72.8407 128.039C73.1623 127.066 73.5643 126.013 73.8859 125.041H79.4334C81.5237 131.361 83.6141 137.763 85.7044 144.084C85.8652 144.652 86.026 145.138 86.1868 145.624C88.438 140.194 90.6891 134.765 93.0207 129.335H86.1064V125.041H102.99C100.257 131.929 97.4426 138.817 94.6286 145.705H102.99C102.99 146.759 102.91 147.893 102.91 149.028C102.91 149.352 102.91 149.676 102.829 149.919H91.7343C87.8752 149.919 83.9357 150 80.0766 150C79.755 149.028 79.5138 148.136 79.1922 147.164H71.7956C71.474 148.136 71.1524 149.028 70.9112 150H60.0574V136.548C60.0574 136.629 59.977 136.629 59.977 136.629C58.6103 141.086 57.3239 145.543 55.9571 150H49.9273C48.7213 146.272 47.5153 142.464 46.3897 138.736C46.1485 138.006 45.9074 137.277 45.6662 136.548H45.5858C45.6662 141.005 45.5858 145.543 45.5858 150H35.2144C34.9732 149.028 34.6516 148.136 34.33 147.164H26.9334C26.6118 148.136 26.2902 149.028 26.049 150H16.0796C14.5521 146.029 13.0245 142.058 11.4969 138.088C10.8538 138.655 10.291 139.303 9.64778 139.951C9.56738 140.032 9.40659 140.113 9.40659 140.194V150H1.92956V125.041ZM30.6317 135.818C29.9081 138.25 29.1041 140.519 28.3002 142.869C29.9081 142.869 31.4357 142.95 32.9632 142.869C32.2397 140.843 31.5965 138.736 30.8729 136.71C30.7925 136.386 30.7925 136.143 30.6317 135.818ZM75.4135 135.9C75.2527 136.548 75.0115 137.115 74.8507 137.763C74.2879 139.465 73.7251 141.167 73.1623 142.869C74.6899 142.869 76.2979 142.95 77.8254 142.869C77.0214 140.6 76.2979 138.25 75.4939 135.9H75.4135Z" fill="var(--fill-0, #FEFEFE)"/>
</svg>
