<svg preserveAspectRatio="none" width="100%" height="100%" overflow="visible" style="display: block;" viewBox="0 0 620 91.7647" fill="none" xmlns="http://www.w3.org/2000/svg">
<g id="logo">
<path d="M103.085 9.40508C99.8037 4.57239 96.1359 2.87472 90.6285 2.87472H66.3617C60.8543 2.87472 57.1864 4.57239 53.9046 9.40508L0 88.89H20.985L30.1603 75.6821C32.386 72.4113 34.8842 70.7136 39.2106 70.7136H117.768C122.095 70.7136 124.593 72.4113 126.819 75.6821L135.994 88.89H156.979L103.085 9.40508ZM63.8748 24.9557C65.8393 21.9452 68.2013 19.4666 73.0502 19.4666H83.9401C88.7889 19.4666 91.0259 21.9452 93.1153 24.9557L112.42 53.3182H44.5591L63.8634 24.9557H63.8748Z" fill="var(--fill-0, white)"/>
<path d="M321.27 49.9341V41.8306C321.27 30.592 320.226 26.1441 331.627 22.7488C342.38 19.6137 363.888 18.5612 371.11 18.5612C378.332 18.5612 399.828 19.6024 410.582 22.7488C421.994 26.1441 420.938 30.592 420.938 41.8306V49.9341C420.938 61.1727 421.983 65.6206 410.582 69.0159C399.828 72.151 378.321 73.2035 371.11 73.2035C363.899 73.2035 342.38 72.1623 331.627 69.0159C320.214 65.6206 321.27 61.1727 321.27 49.9341ZM303.306 30.1959V61.5688C303.306 73.7241 304.748 79.4736 317.466 84.4421C328.617 88.7542 350.125 91.7647 371.11 91.7647C392.095 91.7647 413.602 88.7542 424.753 84.4421C437.471 79.4736 438.914 73.7241 438.914 61.5688V30.1959C438.914 18.0406 437.471 12.2911 424.753 7.32262C413.602 3.01054 392.095 0 371.11 0C350.125 0 328.617 3.01054 317.466 7.32262C304.748 12.2911 303.306 18.0406 303.306 30.1959Z" fill="var(--fill-0, white)"/>
<path d="M205.274 88.89H222.852V26.1441C222.852 21.1756 224.953 19.4779 229.677 19.4779H285.16L280.05 8.89578C277.824 4.18758 274.667 2.88604 269.421 2.88604H158.728C153.481 2.88604 150.336 4.18758 148.099 8.89578L142.989 19.4779H198.472C203.196 19.4779 205.297 21.1756 205.297 26.1441V88.89H205.274Z" fill="var(--fill-0, white)"/>
<path d="M548.926 60.5276C555.092 60.5276 557.84 58.5696 560.202 55.4232L593.246 10.8424C597.573 4.9572 600.457 2.87472 607.543 2.87472H620V88.89H602.422V26.4044L568.719 72.8074C565.176 77.6401 561.11 79.6094 555.467 79.6094H533.437C527.793 79.6094 523.603 77.6514 520.06 72.8074L486.221 26.5289V88.8787H468.642V2.87472H481.099C488.185 2.87472 491.194 5.22882 495.396 10.8424L528.452 55.4232C530.814 58.5583 533.562 60.5276 539.728 60.5276H548.926Z" fill="var(--fill-0, white)"/>
</g>
</svg>
