<svg preserveAspectRatio="none" width="100%" height="100%" overflow="visible" style="display: block;" viewBox="0 0 7.70918 5.99003" fill="none" xmlns="http://www.w3.org/2000/svg">
<path id="Shape" fill-rule="evenodd" clip-rule="evenodd" d="M5.27403 2.163C5.31884 2.09248 5.36365 2.01724 5.40398 1.94201C5.38605 1.93261 5.36813 1.93261 5.35021 1.95612C4.48989 2.91061 3.66094 3.02815 3.02466 3.02815H2.04784C2.02096 3.02815 1.99407 2.99054 2.01648 2.95762C2.76926 1.86208 3.60717 1.00634 4.22552 0.451512L2.59002 1.88559C2.46456 1.99844 2.31221 2.06897 2.09713 2.06897H0.040435C-0.0178157 2.06897 0.000107622 2.12069 0.0135501 2.1489C0.156936 2.61439 0.542287 3.02815 1.21889 3.02815L0.734962 3.54536C0.717039 3.56417 0.717039 3.61589 0.761847 3.61589H2.59898C3.92531 3.61589 4.73634 3.01405 5.27403 2.163V2.163ZM4.70117 4.28794L5.2792 5.99003H5.70488L5.09548 4.20801C4.98346 4.23622 4.84904 4.26443 4.70117 4.28794ZM6.32633 0.338338C6.2636 0.404164 6.16502 0.404164 6.10229 0.338338C6.03956 0.272511 6.03956 0.169069 6.10229 0.103243C6.16502 0.0374163 6.2636 0.0374163 6.32633 0.103243C6.19639 -0.0331122 5.98131 -0.0331122 5.85136 0.103243C5.72142 0.239598 5.72142 0.465289 5.85136 0.601644C5.98131 0.737999 6.19639 0.737999 6.32633 0.601644C6.45628 0.465289 6.45628 0.239598 6.32633 0.103243C6.38906 0.169069 6.38906 0.272511 6.32633 0.338338ZM5.15774 3.45601H4.32879C4.11819 3.58766 4.05098 3.62998 3.75077 3.74753C3.72836 3.75693 3.72388 3.77574 3.73284 3.80865L4.47666 5.98563H4.90234L4.21229 3.99203C4.65589 3.99203 5.71337 3.86978 6.28691 2.89648C6.11216 3.1786 5.69544 3.45601 5.15774 3.45601ZM7.66722 0H6.99062L6.82483 0.211585C6.79794 0.239797 6.8069 0.27271 6.83379 0.282114L7.05783 0.385556L7.68514 0.0799323C7.72547 0.0611247 7.71203 0 7.66722 0Z" fill="var(--fill-0, white)"/>
</svg>
