<svg preserveAspectRatio="none" width="100%" height="100%" overflow="visible" style="display: block;" viewBox="0 0 7.99765 7.99811" fill="none" xmlns="http://www.w3.org/2000/svg">
<path id="Shape" fill-rule="evenodd" clip-rule="evenodd" d="M2.48199 3.62987L3.40952 2.83054C3.6022 2.27572 3.80383 1.70679 4.01891 1.2319C4.12645 1.4858 4.22503 1.7397 4.32809 2.01241C4.8389 1.57514 5.14808 1.31183 5.56928 1.18958C5.30939 0.592439 5.12568 0.178672 5.04054 0H2.98384C2.80909 0.385556 2.15489 1.81493 1.38867 3.74741H2.13249C2.27139 3.74271 2.38789 3.7192 2.48199 3.62987ZM0 7.99811H1.83266L2.45549 5.96219H0.667642C0.457044 6.56873 0.233003 7.2364 0 7.99811ZM5.5332 6.0795L6.18292 7.99787H7.99765C7.62127 6.8224 7.21799 5.71745 6.8416 4.70654C6.52346 5.38362 6.22773 5.72686 5.5332 6.0795ZM6.37601 4.90867C6.94956 3.94008 7.14671 2.39785 7.14671 2.39785L6.92267 2.29441C6.89579 2.28501 6.88235 2.25209 6.91371 2.22388L7.0795 2.0123C6.97196 1.80071 6.60454 1.45277 6.06684 1.45277C5.74422 1.45277 5.46641 1.54211 5.21548 1.71608C5.21548 1.71608 4.84805 1.97938 4.31484 2.46368C3.70096 3.0232 2.86305 3.87895 2.10579 4.96979C2.08339 5.0027 2.11027 5.04032 2.13716 5.04032H3.11398C3.75025 5.04032 4.5792 4.91807 5.43952 3.96829C5.45744 3.94948 5.47537 3.94478 5.49329 3.95418C5.51121 3.96358 5.5157 3.98709 5.50673 4.0059C5.37231 4.34914 5.03177 5.04972 4.41789 5.46349H5.24237C5.78454 5.46349 6.20126 5.19078 6.37601 4.90867ZM5.94121 2.61434C5.81126 2.47798 5.81126 2.25229 5.94121 2.11594C6.07115 1.97958 6.28623 1.97958 6.41618 2.11594C6.54612 2.25229 6.54612 2.47798 6.41618 2.61434C6.28175 2.75069 6.07115 2.75069 5.94121 2.61434Z" fill="var(--fill-0, #E3000F)"/>
</svg>
