<svg preserveAspectRatio="none" width="100%" height="100%" overflow="visible" style="display: block;" viewBox="0 0 14.4 17.6" fill="none" xmlns="http://www.w3.org/2000/svg">
<path id="Solid" fill-rule="evenodd" clip-rule="evenodd" d="M9.79304 3.29433e-07H4.60696C3.96299 -9.56401e-06 3.43149 -1.77264e-05 2.99854 0.0353559C2.54886 0.0720961 2.1355 0.150948 1.74723 0.34878C1.14511 0.655575 0.655575 1.14511 0.34878 1.74723C0.150948 2.1355 0.0720961 2.54886 0.0353559 2.99854C-1.77234e-05 3.43149 -9.56173e-06 3.96298 3.29317e-07 4.60695V12.993C-9.56173e-06 13.637 -1.77264e-05 14.1685 0.0353559 14.6015C0.0720961 15.0511 0.150948 15.4645 0.34878 15.8528C0.655575 16.4549 1.14511 16.9444 1.74723 17.2512C2.1355 17.4491 2.54886 17.5279 2.99854 17.5646C3.43149 17.6 3.96297 17.6 4.60694 17.6H9.79306C10.437 17.6 10.9685 17.6 11.4015 17.5646C11.8511 17.5279 12.2645 17.4491 12.6528 17.2512C13.2549 16.9444 13.7444 16.4549 14.0512 15.8528C14.2491 15.4645 14.3279 15.0511 14.3646 14.6015C14.4 14.1685 14.4 13.637 14.4 12.9931V4.60694C14.4 3.96297 14.4 3.43149 14.3646 2.99854C14.3279 2.54886 14.2491 2.1355 14.0512 1.74723C13.7444 1.14511 13.2549 0.655575 12.6528 0.34878C12.2645 0.150948 11.8511 0.0720961 11.4015 0.0353559C10.9685 -1.77264e-05 10.437 -9.56401e-06 9.79304 3.29433e-07ZM4 4C3.55817 4 3.2 4.35817 3.2 4.8C3.2 5.24183 3.55817 5.6 4 5.6H10.4C10.8418 5.6 11.2 5.24183 11.2 4.8C11.2 4.35817 10.8418 4 10.4 4H4ZM3.2 8C3.2 7.55817 3.55817 7.2 4 7.2H8.8C9.24183 7.2 9.6 7.55817 9.6 8C9.6 8.44183 9.24183 8.8 8.8 8.8H4C3.55817 8.8 3.2 8.44183 3.2 8ZM3.2 11.2C3.2 10.7582 3.55817 10.4 4 10.4H5.6C6.04183 10.4 6.4 10.7582 6.4 11.2C6.4 11.6418 6.04183 12 5.6 12H4C3.55817 12 3.2 11.6418 3.2 11.2Z" fill="var(--fill-0, white)"/>
</svg>
