<svg preserveAspectRatio="none" width="100%" height="100%" overflow="visible" style="display: block;" viewBox="0 0 17.1665 17.6" fill="none" xmlns="http://www.w3.org/2000/svg">
<path id="Solid" d="M8.42733 0C7.85132 0 7.32934 0.339223 7.0954 0.865588L4.40679 6.91495C4.34157 7.06171 4.30751 7.1374 4.27959 7.19068L4.2771 7.19538L4.2718 7.19574C4.21177 7.19962 4.12877 7.2 3.96816 7.2L3.32917 7.2C2.90745 7.19998 2.54364 7.19997 2.24398 7.22446C1.9277 7.2503 1.61313 7.30735 1.31042 7.46158C0.858836 7.69168 0.491683 8.05883 0.261587 8.51042C0.107351 8.81313 0.0502985 9.1277 0.0244577 9.44398C-2.46882e-05 9.74363 -1.29595e-05 10.1074 6.37648e-07 10.5291V14.2708C-1.29595e-05 14.6925 -2.46868e-05 15.0564 0.0244577 15.356C0.0502985 15.6723 0.107351 15.9869 0.261587 16.2896C0.491683 16.7412 0.858836 17.1083 1.31042 17.3384C1.61313 17.4927 1.9277 17.5497 2.24398 17.5755C2.54363 17.6 2.90744 17.6 3.32915 17.6C3.69965 17.6 4 17.2996 4 16.9291L4 10.4C4 9.95817 4.35817 9.6 4.8 9.6C5.24183 9.6 5.6 9.95817 5.6 10.4L5.6 16.32C5.6 16.768 5.6 16.9921 5.6872 17.1632C5.76389 17.3137 5.88628 17.4361 6.03681 17.5128C6.20794 17.6 6.43196 17.6 6.88 17.6H11.9357C12.4947 17.6 12.9588 17.6 13.3407 17.5709C13.7394 17.5406 14.1069 17.4755 14.4617 17.3147C15.0166 17.0633 15.4882 16.6587 15.821 16.1486C16.0339 15.8223 16.1541 15.469 16.2447 15.0795C16.3315 14.7065 16.4021 14.2478 16.4871 13.6953L16.9155 10.9101C17.0282 10.1782 17.1205 9.57808 17.1532 9.08834C17.1868 8.58303 17.1648 8.11154 16.9924 7.6596C16.7278 6.96566 16.2299 6.3854 15.5843 6.01827C15.1638 5.77918 14.7012 5.68571 14.1966 5.64217C13.7076 5.59998 13.1005 5.59999 12.3599 5.6H11.68C11.4428 5.6 11.313 5.59938 11.2197 5.59176L11.2092 5.59084L11.2082 5.58029C11.2006 5.48702 11.2 5.35722 11.2 5.12V2.77267C11.2 1.24137 9.95864 0 8.42733 0Z" fill="var(--fill-0, white)"/>
</svg>
