<svg preserveAspectRatio="none" width="100%" height="100%" overflow="visible" style="display: block;" viewBox="0 0 620 110" fill="none" xmlns="http://www.w3.org/2000/svg">
<g id="Bitrix24 logo" clip-path="url(#clip0_0_4)">
<g id="&#208;&#145;&#208;&#184;&#209;&#130;&#209;&#128;&#208;&#184;&#208;&#186;&#209;&#129;24">
<path d="M0 87.8275V1.60135H62.7266V17.3684H17.638V72.0605H39.2507C41.7349 72.0605 43.8879 71.6088 45.7097 70.7055C47.5315 69.8022 48.9392 68.5704 49.9329 67.0101C50.9266 65.3677 51.4234 63.4789 51.4234 61.3438C51.4234 59.2087 50.9266 57.361 49.9329 55.8007C48.9392 54.1583 47.5315 52.8854 45.7097 51.9821C43.8879 51.0788 41.7349 50.6271 39.2507 50.6271H15.0296V34.86H39.8718C45.5855 34.86 50.6367 36.0508 55.0255 38.4323C59.4971 40.7316 62.9337 43.8932 65.3351 47.9171C67.8193 51.941 69.0614 56.4166 69.0614 61.3438C69.0614 66.271 67.8193 70.7465 65.3351 74.7704C62.9337 78.7943 59.4971 81.997 55.0255 84.3785C50.6367 86.6779 45.5855 87.8275 39.8718 87.8275H0Z" fill="var(--fill-0, white)"/>
<path d="M77.5097 87.8275V25.0056H93.6571V68.4882H91.1729L124.089 25.0056H138.87V87.8275H122.598V44.4681H125.083L92.2908 87.8275H77.5097Z" fill="var(--fill-0, white)"/>
<path d="M164.842 87.8275V40.5263H145.092V25.0056H201.484V40.5263H181.734V87.8275H164.842Z" fill="var(--fill-0, white)"/>
<path d="M207.854 110V25.0056H220.523L223.132 31.2878H223.753C224.829 30.2202 226.196 29.1116 227.852 27.9619C229.591 26.7301 231.785 25.6626 234.435 24.7592C237.085 23.8559 240.024 23.4043 243.254 23.4043C248.719 23.4043 253.77 24.8414 258.408 27.7156C263.128 30.5898 266.895 34.5726 269.711 39.6641C272.526 44.6734 273.934 50.2576 273.934 56.4166C273.934 62.6577 272.526 68.324 269.711 73.4155C266.895 78.4248 263.128 82.3666 258.408 85.2408C253.77 88.0328 248.719 89.4289 243.254 89.4289C240.273 89.4289 237.499 89.0183 234.932 88.1971C232.448 87.3759 230.377 86.4315 228.721 85.3639C227.148 84.2143 225.989 83.1878 225.243 82.2844H224.622V110H207.854ZM240.894 74.1545C243.792 74.1545 246.483 73.4155 248.968 71.9373C251.452 70.377 253.398 68.2829 254.806 65.6551C256.296 62.9451 257.041 59.8656 257.041 56.4166C257.041 53.0496 256.296 50.0112 254.806 47.3012C253.398 44.5913 251.452 42.4972 248.968 41.019C246.483 39.4588 243.792 38.6786 240.894 38.6786C237.913 38.6786 235.18 39.4588 232.696 41.019C230.295 42.4972 228.349 44.5913 226.858 47.3012C225.368 50.0112 224.622 53.0496 224.622 56.4166C224.622 59.8656 225.368 62.9451 226.858 65.6551C228.349 68.2829 230.295 70.377 232.696 71.9373C235.18 73.4155 237.913 74.1545 240.894 74.1545Z" fill="var(--fill-0, white)"/>
<path d="M282.487 87.8275V25.0056H298.635V68.4882H296.15L329.066 25.0056H343.848V87.8275H327.576V44.4681H330.06L297.268 87.8275H282.487Z" fill="var(--fill-0, white)"/>
<path d="M395.283 87.8275L369.571 55.308L393.792 25.0056H413.542L386.091 58.1411V51.243L416.398 87.8275H395.283ZM355.908 87.8275V25.0056H372.676V87.8275H355.908Z" fill="var(--fill-0, white)"/>
<path d="M447.263 89.4289C441.135 89.4289 435.463 87.9507 430.246 84.9944C425.112 82.0381 421.013 78.0142 417.949 72.9227C414.968 67.8313 413.478 62.3292 413.478 56.4166C413.478 50.5039 414.968 45.0429 417.949 40.0336C421.013 34.9421 425.112 30.9183 430.246 27.9619C435.463 24.9235 441.135 23.4043 447.263 23.4043C452.811 23.4043 457.821 24.6361 462.293 27.0997C466.847 29.4812 470.532 32.6428 473.347 36.5845C476.163 40.4442 478.026 44.4681 478.937 48.6562H462.044C461.63 47.3423 460.802 45.9462 459.56 44.4681C458.401 42.9078 456.744 41.5528 454.591 40.4031C452.521 39.2535 450.078 38.6786 447.263 38.6786C444.034 38.6786 441.094 39.4588 438.444 41.019C435.877 42.4972 433.848 44.5913 432.358 47.3012C430.95 50.0112 430.246 53.0496 430.246 56.4166C430.246 59.7835 430.95 62.822 432.358 65.5319C433.848 68.2419 435.877 70.377 438.444 71.9373C441.094 73.4155 444.034 74.1545 447.263 74.1545C450.078 74.1545 452.521 73.6208 454.591 72.5532C456.744 71.4035 458.401 70.0485 459.56 68.4882C460.802 66.928 461.63 65.5319 462.044 64.3001H478.937C478.026 68.4061 476.163 72.43 473.347 76.3718C470.532 80.2314 466.847 83.3931 462.293 85.8567C457.821 88.2381 452.811 89.4289 447.263 89.4289Z" fill="var(--fill-0, white)"/>
<path d="M483.753 87.8275V74.7704L515.551 46.1926C518.946 43.1542 521.513 40.6906 523.252 38.8018C524.991 36.8309 526.275 34.9421 527.103 33.1355C528.014 31.3289 528.469 29.358 528.469 27.2228C528.469 25.0056 527.889 23.0758 526.73 21.4334C525.571 19.7089 523.915 18.3949 521.762 17.4916C519.691 16.5062 517.249 16.0134 514.433 16.0134C510.044 16.0134 506.484 17.1631 503.751 19.4625C501.101 21.7619 499.693 24.8003 499.528 28.5778H482.635C482.718 23.1579 484.084 18.3128 486.734 14.0426C489.467 9.69019 493.234 6.2822 498.037 3.81859C502.84 1.27286 508.347 0 514.557 0C520.933 0 526.482 1.14968 531.202 3.44905C535.922 5.74842 539.565 8.91005 542.132 12.9339C544.782 16.8757 546.107 21.3102 546.107 26.2374C546.107 30.2613 545.362 33.9567 543.871 37.3236C542.463 40.6906 540.476 43.8111 537.909 46.6853C535.425 49.5595 532.112 52.8443 527.972 56.5398L505.614 76.2486L504.62 71.075H545.983V87.8275H483.753Z" fill="var(--fill-0, white)"/>
<path d="M593.17 87.8275V19.5857H596.4L568.825 59.9888L566.465 56.047H620V72.3068H551.932V57.2788L590.065 1.60135H610.187V87.8275H593.17Z" fill="var(--fill-0, white)"/>
</g>
</g>
<defs>
<clipPath id="clip0_0_4">
<rect width="620" height="110" fill="white"/>
</clipPath>
</defs>
</svg>
