<svg preserveAspectRatio="none" width="100%" height="100%" overflow="visible" style="display: block;" viewBox="0 0 16.7753 16.8042" fill="none" xmlns="http://www.w3.org/2000/svg">
<g id="Solid">
<path d="M12.6046 0.661199C13.5837 -0.245435 15.1044 -0.2162 16.0479 0.727395C16.9915 1.67099 17.0208 3.1916 16.1141 4.17076L11.1615 9.51971C10.8562 9.84942 10.7036 10.0143 10.5237 10.0781C10.3657 10.1342 10.1937 10.1375 10.0335 10.0875C9.85141 10.0307 9.69254 9.8718 9.37481 9.55406L7.22128 7.40054C6.90354 7.0828 6.74467 6.92393 6.68781 6.7418C6.63782 6.58169 6.64113 6.40967 6.69724 6.25159C6.76106 6.07179 6.92592 5.91914 7.25564 5.61385L12.6046 0.661199Z" fill="var(--fill-0, white)"/>
<path d="M6.01565 8.38693C5.69753 8.06881 5.53847 7.90975 5.34851 7.85405C5.19536 7.80914 4.9899 7.81906 4.84179 7.8785C4.65807 7.95223 4.54325 8.09164 4.31361 8.37046C4.23791 8.46237 4.16844 8.55871 4.10801 8.66103C3.89825 9.01619 3.79037 9.41381 3.78514 9.81292C2.7962 9.72871 1.7782 10.065 1.02145 10.8217C0.222283 11.6209 0.267148 12.7454 0.297734 13.512L0.30164 13.6097C0.336205 14.4712 0.361731 15.1075 0.0853163 15.6468C-0.0378266 15.887 -0.0270664 16.1741 0.113719 16.4044C0.254505 16.6348 0.505025 16.7753 0.775001 16.7753C0.986067 16.7753 1.22682 16.7815 1.48421 16.7882C2.06657 16.8034 2.73424 16.8207 3.33578 16.7728C4.22279 16.7022 5.2249 16.4824 5.95351 15.7538C6.71024 14.9971 7.04652 13.9791 6.96234 12.9902C7.36147 12.985 7.75913 12.8771 8.11432 12.6673C8.21664 12.6069 8.31297 12.5374 8.40489 12.4617C8.6837 12.2321 8.82311 12.1173 8.89684 11.9336C8.95628 11.7854 8.9662 11.58 8.92129 11.4268C8.86559 11.2369 8.70653 11.0778 8.38841 10.7597L6.01565 8.38693Z" fill="var(--fill-0, white)"/>
</g>
</svg>
