<svg preserveAspectRatio="none" width="100%" height="100%" overflow="visible" style="display: block;" viewBox="0 0 11.3496 2.80838" fill="none" xmlns="http://www.w3.org/2000/svg">
<g id="Logo animation">
<path id="Vector_2" d="M4.09439 0.470703L4.09375 0.471339L4.09567 0.470703H4.09439Z" fill="var(--fill-0, white)"/>
<path id="Vector_3" d="M2.86481 1.79396C2.85599 1.81626 2.84077 1.83558 2.82099 1.84955C2.8012 1.86353 2.77771 1.87158 2.75336 1.87271H1.02201L1.36639 0.929366H3.7837L4.08127 0.465078H0.920595L0.236302 2.34356H2.34019L3.6104 1.7606C3.73076 1.43248 3.55802 1.16944 3.22925 1.16506H1.50904L1.32682 1.64084H2.84029C2.84986 1.64063 2.85931 1.64284 2.86775 1.64726C2.87619 1.65168 2.88333 1.65816 2.88848 1.66607C2.89363 1.67398 2.89662 1.68306 2.89716 1.69243C2.8977 1.7018 2.89577 1.71116 2.89156 1.71959L2.86481 1.79396Z" fill="var(--fill-0, white)"/>
<path id="Vector_9" d="M11.0584 0.000231527H10.1641L7.40183 1.17326L6.75208 0.46452H5.85771L6.75877 1.44669L3.55296 2.80838H4.44678L7.65203 1.44669L8.47285 2.34355H9.36722L8.2962 1.17326L11.0584 0.000231527Z" fill="var(--fill-0, white)"/>
<path id="Vector_10" d="M5.17959 0.464355H4.28522L5.18628 1.44652L1.98047 2.80822H2.87484L6.08009 1.44652L5.17959 0.464355Z" fill="var(--fill-0, #E11229)"/>
</g>
</svg>
