<svg preserveAspectRatio="none" width="100%" height="100%" overflow="visible" style="display: block;" viewBox="0 0 115.292 34.9766" fill="none" xmlns="http://www.w3.org/2000/svg">
<g id="auchan_logo">
<path id="Shape" fill-rule="evenodd" clip-rule="evenodd" d="M28.3561 9.12089C28.0688 9.40526 28.0688 9.85212 28.3561 10.1365C28.6433 10.4209 29.0947 10.4209 29.382 10.1365C29.6692 9.85212 29.6692 9.40526 29.382 9.12089C29.0947 8.85684 28.6433 8.85684 28.3561 9.12089" fill="var(--fill-0, white)"/>
<path id="Shape_2" fill-rule="evenodd" clip-rule="evenodd" d="M24.5607 18.0166C24.7659 17.7119 24.9711 17.3869 25.1557 17.0619C25.0736 17.0213 24.9916 17.0213 24.9095 17.1229C20.97 21.2462 17.1741 21.754 14.2605 21.754H9.78751C9.6644 21.754 9.54129 21.5915 9.64388 21.4493C13.091 16.7166 16.9279 13.0199 19.7594 10.623L12.2702 16.8182C11.6957 17.3057 10.9981 17.6104 10.0132 17.6104H0.595314C0.328576 17.6104 0.410649 17.8338 0.472204 17.9557C1.12879 19.9666 2.89336 21.754 5.99163 21.754L3.77565 23.9883C3.69358 24.0696 3.69358 24.293 3.89876 24.293H12.3113C18.3847 24.293 22.0985 21.6931 24.5607 18.0166V18.0166ZM21.9336 27.1978L24.5805 34.5508H26.5297L23.7392 26.8525C23.2262 26.9744 22.6107 27.0963 21.9336 27.1978ZM29.3829 10.1361C29.0957 10.4205 28.6443 10.4205 28.357 10.1361C28.0698 9.85173 28.0698 9.40486 28.357 9.1205C28.6443 8.83613 29.0957 8.83613 29.3829 9.1205C28.7879 8.53145 27.803 8.53145 27.208 9.1205C26.613 9.70954 26.613 10.6845 27.208 11.2736C27.803 11.8626 28.7879 11.8626 29.3829 11.2736C29.978 10.6845 29.978 9.70954 29.3829 9.1205C29.6702 9.40486 29.6702 9.85173 29.3829 10.1361ZM24.0271 23.6036H20.2312C19.2668 24.1724 18.959 24.3552 17.5843 24.863C17.4817 24.9036 17.4612 24.9849 17.5022 25.127L20.9083 34.5315H22.8575L19.6977 25.9192C21.729 25.9192 26.5713 25.3911 29.1977 21.1865C28.3975 22.4052 26.4893 23.6036 24.0271 23.6036ZM35.5179 8.67383H32.4196L31.6604 9.58787C31.5373 9.70974 31.5784 9.85192 31.7015 9.89255L32.7274 10.3394L35.6 9.01913C35.7846 8.93788 35.7231 8.67383 35.5179 8.67383Z" fill="var(--fill-0, #009656)"/>
<path id="Shape_3" fill-rule="evenodd" clip-rule="evenodd" d="M79.4883 34.9766H79.714C82.7712 34.936 84.8846 33.9 86.0542 32.2142L86.403 34.5297H92.0045V14.4209C89.7475 13.7303 87.1827 13.1006 82.3814 13.1006C75.5283 13.1006 71.7734 17.2645 71.7734 24.8206C71.7734 31.8688 74.3998 34.936 79.4883 34.9766V34.9766ZM85.1096 28.0912C84.494 28.8022 83.4681 29.5334 81.8061 29.5334C79.9595 29.5334 78.9336 27.8272 78.9336 24.557C78.9336 20.5352 80.0416 18.5243 82.237 18.5243C83.5092 18.5243 84.1863 18.6056 85.1096 18.829V28.0912ZM63.3406 32.2155L63.792 34.5311H69.3524V13.5488H62.4583V28.1125C61.8838 28.8234 60.6527 29.5547 59.5857 29.5547C57.6775 29.5547 56.6311 28.4578 56.6311 26.4876V13.5488H49.778V28.1125C49.2035 28.8234 47.8287 29.5547 46.6797 29.5547C44.9151 29.5547 43.9508 28.4578 43.9508 26.4876V13.5488H37.0977V27.4016C37.0977 32.4796 39.3136 34.9576 43.9508 34.9576C47.3158 34.9576 49.2445 33.7389 50.8039 32.114C51.8708 34.003 53.7996 34.9576 56.6311 34.9576C59.9756 34.978 61.8427 33.7796 63.3406 32.2155ZM11.3678 15.6808L15.6151 12.2278C16.4974 9.83099 17.4207 7.37325 18.4056 5.32174C18.898 6.41858 19.3494 7.51543 19.8213 8.69352C22.1604 6.80451 23.5762 5.66704 25.5049 5.13893C24.3148 2.55931 23.4736 0.771855 23.0837 0H13.6658C12.8656 1.66558 9.86996 7.84042 6.36133 16.1886H9.76737C10.4034 16.1683 10.9369 16.0668 11.3678 15.6808ZM0 34.55H8.39198L11.244 25.7549H3.05723C2.09287 28.3751 1.06695 31.2594 0 34.55ZM25.3398 26.2641L28.315 34.5514H36.6249C34.9014 29.4734 33.0547 24.7001 31.3312 20.333C29.8744 23.2579 28.5202 24.7407 25.3398 26.2641ZM29.1977 21.2056C31.8241 17.0214 32.7269 10.359 32.7269 10.359L31.701 9.91218C31.5779 9.87155 31.5163 9.72937 31.6599 9.6075L32.4191 8.69346C31.9267 7.77942 30.2442 6.27633 27.782 6.27633C26.3047 6.27633 25.0325 6.66226 23.8835 7.4138C23.8835 7.4138 22.201 8.55127 19.7593 10.6434C16.9483 13.0605 13.1114 16.7573 9.6438 21.4697C9.5412 21.6119 9.66431 21.7744 9.78742 21.7744H14.2604C17.174 21.7744 20.9699 21.2463 24.9094 17.1432C24.9915 17.062 25.0736 17.0417 25.1556 17.0823C25.2377 17.1229 25.2582 17.2245 25.2172 17.3057C24.6016 18.7885 23.0422 21.815 20.2312 23.6024H24.0066C26.4893 23.6024 28.3975 22.4244 29.1977 21.2056ZM27.208 11.2931C26.613 10.704 26.613 9.72907 27.208 9.14003C27.803 8.55098 28.7879 8.55098 29.3829 9.14003C29.978 9.72907 29.978 10.704 29.3829 11.2931C28.7674 11.8821 27.803 11.8821 27.208 11.2931ZM108.438 34.5311H115.292V13.5488H108.438V21.2471H101.996V13.5488H95.1016V34.5311H101.996V26.6094H108.438V34.5311Z" fill="var(--fill-0, #E3000F)"/>
</g>
</svg>
