<svg preserveAspectRatio="none" width="100%" height="100%" overflow="visible" style="display: block;" viewBox="0 0 9.99679 11.2251" fill="none" xmlns="http://www.w3.org/2000/svg">
<g id="svg 3">
<path id="svg 4" d="M1.99936 0V0.268544V5.26346H0.263074H0V5.532V6.71359V6.98214H0.263074H1.99936V7.89518H0.263074H0V8.16373V9.18419V9.45274H0.263074H1.99936V10.9566V11.2251H2.26243H3.5778H3.84087V10.9566V9.45274H7.26083H7.5239V9.18419V8.16373V7.89518H7.26083H3.84087V6.98214H6.47161C7.5239 6.98214 8.36574 6.65988 8.99712 6.01538C9.62849 5.37087 9.99679 4.51153 9.99679 3.49107C9.99679 2.4706 9.68111 1.61126 8.99712 0.966758C8.36574 0.322253 7.47129 0 6.47161 0H2.26243H1.99936ZM3.78826 1.71868H6.26115C6.7873 1.71868 7.26083 1.87981 7.57652 2.20206C7.89221 2.52431 8.10266 2.95398 8.10266 3.49107C8.10266 4.02815 7.94482 4.45782 7.57652 4.78008C7.26083 5.10233 6.7873 5.26346 6.26115 5.26346H3.78826V1.71868V1.71868Z" fill="var(--fill-0, white)"/>
</g>
</svg>
