<svg preserveAspectRatio="none" width="100%" height="100%" overflow="visible" style="display: block;" viewBox="0 0 620 92" fill="none" xmlns="http://www.w3.org/2000/svg">
<g id="OBJ logo" clip-path="url(#clip0_0_6)">
<g id="Logo">
<path d="M12.9034 46.8079C12.9034 61.7372 21.0987 69.6821 30.9506 69.6821C40.8025 69.6821 48.9979 61.7372 48.9979 46.8079C48.9979 31.9658 40.8025 24.021 30.9506 24.021C21.0987 24.021 12.9034 31.9658 12.9034 46.8079ZM61.9012 46.8079C61.9012 66.4518 49.7825 79.635 30.9506 79.635C12.1187 79.635 0 66.4518 0 46.8079C0 27.164 12.1187 14.0681 30.9506 14.0681C49.7825 14.0681 61.9012 27.164 61.9012 46.8079Z" fill="white"/>
<path d="M70.7266 78.5V15.2031H95.3128C106.385 15.2031 118.33 18.6953 118.33 31.7039C118.33 37.6407 114.406 42.9664 111.18 45.0618C116.063 47.419 120.596 51.0859 120.596 59.8165C120.596 73.4362 109.35 78.5 96.359 78.5H70.7266ZM83.1941 50.7367V68.7217H96.9693C104.293 68.7217 107.867 65.666 107.867 59.8165C107.867 53.8797 104.206 50.7367 96.4462 50.7367H83.1941ZM83.1941 24.9813V41.3076H96.0974C102.026 41.3076 105.513 38.5138 105.513 32.9262C105.513 27.9498 101.939 24.9813 96.0974 24.9813H83.1941Z" fill="white"/>
<path d="M145.711 79.635C131.849 79.635 124.176 70.6425 123.915 57.8084H136.382C136.644 66.4518 140.131 69.4202 145.711 69.4202C151.204 69.4202 154.953 66.4518 154.953 57.8084V15.2031H167.42V57.8084C167.42 71.1663 159.573 79.635 145.711 79.635Z" fill="white"/>
<path d="M186.793 78.5H173.889V65.4041H186.793V78.5Z" fill="white"/>
<path d="M221.549 0H620V92H221.549V0Z" fill="var(--fill-0, #E8E8E8)"/>
</g>
</g>
<defs>
<clipPath id="clip0_0_6">
<rect width="620" height="92" fill="white"/>
</clipPath>
</defs>
</svg>
