<svg preserveAspectRatio="none" width="100%" height="100%" overflow="visible" style="display: block;" viewBox="0 0 201 64" fill="none" xmlns="http://www.w3.org/2000/svg">
<g id="Description" clip-path="url(#clip0_0_4)">
<g id="Vector">
<path d="M7.85873 6.73905H9.16632C8.74367 8.86577 7.09267 9.9823 5.01902 9.9823C2.27177 9.9823 0.673606 7.89545 0.673606 4.97121C0.673606 1.9938 2.43026 0 5.12469 0C7.10588 0 8.69083 1.18299 9.11349 3.24325H7.8059C7.52853 2.03368 6.57756 1.14311 5.05865 1.14311C3.36803 1.14311 2.04723 2.47231 2.04723 4.97121C2.04723 7.41694 3.3152 8.83919 5.09827 8.83919C6.63039 8.83919 7.55495 7.97521 7.85873 6.73905Z" fill="white"/>
<path d="M14.0742 2.63182V3.92114C13.8233 3.88127 13.5987 3.86797 13.4006 3.86797C12.2911 3.86797 11.7364 4.47941 11.7364 6.06116V9.8095H10.5345V2.6584H11.71V3.90785C12.0666 3.09704 12.7798 2.6584 13.7176 2.61853C13.8365 2.61853 13.9289 2.61853 14.0742 2.63182Z" fill="white"/>
<path d="M21.3743 6.63271H15.9062C15.9458 8.17459 17.0553 8.91894 18.0987 8.91894C19.1554 8.91894 19.7365 8.44043 20.0403 7.73595H21.2818C20.9648 8.95881 19.829 9.9823 18.0987 9.9823C15.8534 9.9823 14.6118 8.36067 14.6118 6.24724C14.6118 3.97431 16.1175 2.53877 18.0591 2.53877C20.2384 2.53877 21.5196 4.35978 21.3743 6.63271ZM18.0591 3.57555C17.0025 3.57555 16.0251 4.1604 15.9194 5.59594H20.1063C20.0667 4.58574 19.3403 3.57555 18.0591 3.57555Z" fill="white"/>
<path d="M27.1881 6.8188V6.36687C25.0087 6.57954 23.6219 6.91184 23.6219 7.89545C23.6219 8.57335 24.137 9.02527 24.9955 9.02527C26.1182 9.02527 27.1881 8.50689 27.1881 6.8188ZM24.7314 9.9823C23.3974 9.9823 22.2879 9.23795 22.2879 7.92204C22.2879 6.23395 24.1899 5.72886 27.0956 5.40985V5.23705C27.0956 3.92114 26.3824 3.4958 25.4842 3.4958C24.4804 3.4958 23.9125 4.02748 23.8597 4.91804H22.6181C22.7238 3.37617 24.0974 2.51219 25.471 2.51219C27.439 2.51219 28.3107 3.44263 28.2975 5.46302L28.2843 7.11122C28.2711 8.3208 28.3239 9.13161 28.4692 9.8095H27.2541C27.2145 9.54366 27.1748 9.25124 27.1616 8.82589C26.7258 9.57025 25.9993 9.9823 24.7314 9.9823Z" fill="white"/>
<path d="M30.4318 2.6584V0.86398H31.6338V2.6584H32.981V3.62872H31.6338V7.86887C31.6338 8.61322 31.6866 8.79931 32.3734 8.79931H32.981V9.8095H32.1093C30.7488 9.8095 30.4318 9.50379 30.4318 8.01508V3.62872H29.3092V2.6584H30.4318Z" fill="white"/>
<path d="M40.5929 6.63271H35.1248C35.1644 8.17459 36.2739 8.91894 37.3173 8.91894C38.374 8.91894 38.9551 8.44043 39.2589 7.73595H40.5004C40.1834 8.95881 39.0476 9.9823 37.3173 9.9823C35.072 9.9823 33.8304 8.36067 33.8304 6.24724C33.8304 3.97431 35.3361 2.53877 37.2777 2.53877C39.457 2.53877 40.7382 4.35978 40.5929 6.63271ZM37.2777 3.57555C36.2211 3.57555 35.2437 4.1604 35.138 5.59594H39.3249C39.2853 4.58574 38.5589 3.57555 37.2777 3.57555Z" fill="white"/>
<path d="M46.9319 3.78822V0.172796H48.1338V9.8095H46.9319V8.73285C46.496 9.49049 45.7564 9.9823 44.6073 9.9823C42.9695 9.9823 41.5695 8.63981 41.5695 6.26054C41.5695 3.92114 42.9695 2.53877 44.6073 2.53877C45.7564 2.53877 46.496 3.03058 46.9319 3.78822ZM46.9847 6.26054C46.9847 4.37307 45.9809 3.57555 44.9111 3.57555C43.6827 3.57555 42.877 4.54587 42.877 6.26054C42.877 7.9752 43.6827 8.94552 44.9111 8.94552C45.9809 8.94552 46.9847 8.148 46.9847 6.26054Z" fill="white"/>
<path d="M57.6412 6.8188V6.36687C55.4618 6.57954 54.075 6.91184 54.075 7.89545C54.075 8.57335 54.5901 9.02527 55.4486 9.02527C56.5713 9.02527 57.6412 8.50689 57.6412 6.8188ZM55.1845 9.9823C53.8505 9.9823 52.741 9.23795 52.741 7.92204C52.741 6.23395 54.643 5.72886 57.5487 5.40985V5.23705C57.5487 3.92114 56.8355 3.4958 55.9373 3.4958C54.9335 3.4958 54.3656 4.02748 54.3128 4.91804H53.0712C53.1769 3.37617 54.5505 2.51219 55.9241 2.51219C57.8921 2.51219 58.7638 3.44263 58.7506 5.46302L58.7374 7.11122C58.7242 8.3208 58.777 9.13161 58.9223 9.8095H57.7072C57.6676 9.54366 57.628 9.25124 57.6147 8.82589C57.1789 9.57025 56.4524 9.9823 55.1845 9.9823Z" fill="white"/>
<path d="M65.4457 7.94862L66.859 2.6584H68.1005L69.5138 7.94862L70.8742 2.6584H72.1686L70.1213 9.8095H69.0251L67.4533 4.05406L65.9344 9.8095H64.8382L62.7909 2.6584H64.0853L65.4457 7.94862Z" fill="white"/>
<path d="M74.3839 0.172796V3.73505C74.7933 3.05716 75.4802 2.53877 76.6821 2.53877C78.3991 2.53877 79.0199 3.6553 79.0199 5.29022V9.8095H77.818V5.6491C77.818 4.54587 77.633 3.58884 76.2594 3.58884C75.0971 3.58884 74.3839 4.38636 74.3839 5.92824V9.8095H73.182V0.172796H74.3839Z" fill="white"/>
<path d="M81.6367 6.26054C81.6367 8.17459 82.6669 8.91894 83.7632 8.91894C84.8595 8.91894 85.8897 8.09483 85.8897 6.26054C85.8897 4.34649 84.8595 3.60213 83.7632 3.60213C82.6669 3.60213 81.6367 4.30661 81.6367 6.26054ZM83.7632 2.53877C85.4142 2.53877 87.1708 3.66859 87.1708 6.26054C87.1708 8.85248 85.4142 9.9823 83.7632 9.9823C82.1122 9.9823 80.3555 8.85248 80.3555 6.26054C80.3555 3.66859 82.1122 2.53877 83.7632 2.53877Z" fill="white"/>
<path d="M89.8104 0.172796V9.8095H88.6084V0.172796H89.8104Z" fill="white"/>
<path d="M97.9907 6.63271H92.5226C92.5623 8.17459 93.6717 8.91894 94.7152 8.91894C95.7718 8.91894 96.3529 8.44043 96.6567 7.73595H97.8983C97.5813 8.95881 96.4454 9.9823 94.7152 9.9823C92.4698 9.9823 91.2283 8.36067 91.2283 6.24724C91.2283 3.97431 92.734 2.53877 94.6755 2.53877C96.8549 2.53877 98.136 4.35978 97.9907 6.63271ZM94.6755 3.57555C93.6189 3.57555 92.6415 4.1604 92.5359 5.59594H96.7228C96.6832 4.58574 95.9567 3.57555 94.6755 3.57555Z" fill="white"/>
<path d="M103.728 2.6584V3.73505C104.137 3.05716 104.824 2.53877 106.026 2.53877C107.743 2.53877 108.364 3.6553 108.364 5.29022V9.8095H107.162V5.6491C107.162 4.54587 106.977 3.58884 105.603 3.58884C104.441 3.58884 103.728 4.38636 103.728 5.92824V9.8095H102.526V2.6584H103.728Z" fill="white"/>
<path d="M116.435 6.63271H110.967C111.007 8.17459 112.116 8.91894 113.16 8.91894C114.217 8.91894 114.798 8.44043 115.101 7.73595H116.343C116.026 8.95881 114.89 9.9823 113.16 9.9823C110.915 9.9823 109.673 8.36067 109.673 6.24724C109.673 3.97431 111.179 2.53877 113.12 2.53877C115.3 2.53877 116.581 4.35978 116.435 6.63271ZM113.12 3.57555C112.064 3.57555 111.086 4.1604 110.981 5.59594H115.167C115.128 4.58574 114.401 3.57555 113.12 3.57555Z" fill="white"/>
<path d="M119.567 7.94862L120.981 2.6584H122.222L123.635 7.94862L124.996 2.6584H126.29L124.243 9.8095H123.147L121.575 4.05406L120.056 9.8095H118.96L116.913 2.6584H118.207L119.567 7.94862Z" fill="white"/>
<path d="M137.002 0.172796H138.35V9.8095H137.002V5.43643H131.97V9.8095H130.623V0.172796H131.97V4.26673H137.002V0.172796Z" fill="white"/>
<path d="M146.034 9.8095H144.608L141.966 1.40895V9.8095H140.619V0.172796H142.878L145.321 8.20117L147.765 0.172796H150.023V9.8095H148.676V1.40895L146.034 9.8095Z" fill="white"/>
<path d="M153.639 0.172796V9.8095H152.292V0.172796H153.639Z" fill="white"/>
<path d="M159.17 2.6584V2.14001C159.17 0.651309 159.46 0.172796 161.085 0.172796H161.706V1.18299H161.111C160.477 1.18299 160.372 1.3292 160.372 2.07355V2.6584H161.706V3.62872H160.372V9.8095H159.17V3.62872H158.179V2.6584H159.17Z" fill="white"/>
<path d="M163.567 6.26054C163.567 8.17459 164.598 8.91894 165.694 8.91894C166.79 8.91894 167.82 8.09483 167.82 6.26054C167.82 4.34649 166.79 3.60213 165.694 3.60213C164.598 3.60213 163.567 4.30661 163.567 6.26054ZM165.694 2.53877C167.345 2.53877 169.101 3.66859 169.101 6.26054C169.101 8.85248 167.345 9.9823 165.694 9.9823C164.043 9.9823 162.286 8.85248 162.286 6.26054C162.286 3.66859 164.043 2.53877 165.694 2.53877Z" fill="white"/>
<path d="M174.079 2.63182V3.92114C173.828 3.88127 173.603 3.86797 173.405 3.86797C172.296 3.86797 171.741 4.47941 171.741 6.06116V9.8095H170.539V2.6584H171.715V3.90785C172.071 3.09704 172.784 2.6584 173.722 2.61853C173.841 2.61853 173.933 2.61853 174.079 2.63182Z" fill="white"/>
<path d="M5.42847 24.2007V23.7487C3.24916 23.9614 1.86232 24.2937 1.86232 25.2773C1.86232 25.9552 2.37743 26.4071 3.23595 26.4071C4.35862 26.4071 5.42847 25.8887 5.42847 24.2007ZM2.97179 27.3642C1.63779 27.3642 0.528318 26.6198 0.528318 25.3039C0.528318 23.6158 2.43026 23.1107 5.33601 22.7917V22.6189C5.33601 21.303 4.62278 20.8777 3.72464 20.8777C2.72084 20.8777 2.1529 21.4093 2.10006 22.2999H0.858517C0.964181 20.758 2.33781 19.894 3.71144 19.894C5.67942 19.894 6.55115 20.8245 6.53794 22.8449L6.52473 24.4931C6.51152 25.7027 6.56435 26.5135 6.70964 27.1914H5.49451C5.45489 26.9255 5.41526 26.6331 5.40205 26.2077C4.96619 26.9521 4.23975 27.3642 2.97179 27.3642Z" fill="white"/>
<path d="M9.53078 20.0403V21.1169C9.94022 20.439 10.627 19.9206 11.829 19.9206C13.546 19.9206 14.1668 21.0372 14.1668 22.6721V27.1914H12.9648V23.031C12.9648 21.9277 12.7799 20.9707 11.4063 20.9707C10.244 20.9707 9.53078 21.7682 9.53078 23.3101V27.1914H8.32885V20.0403H9.53078Z" fill="white"/>
<path d="M16.7836 23.6424C16.7836 25.5564 17.8138 26.3008 18.9101 26.3008C20.0063 26.3008 21.0366 25.4767 21.0366 23.6424C21.0366 21.7283 20.0063 20.984 18.9101 20.984C17.8138 20.984 16.7836 21.6885 16.7836 23.6424ZM18.9101 19.9206C20.5611 19.9206 22.3177 21.0505 22.3177 23.6424C22.3177 26.2343 20.5611 27.3642 18.9101 27.3642C17.2591 27.3642 15.5024 26.2343 15.5024 23.6424C15.5024 21.0505 17.2591 19.9206 18.9101 19.9206Z" fill="white"/>
<path d="M24.0342 20.0403V18.2458H25.2362V20.0403H26.5834V21.0106H25.2362V25.2507C25.2362 25.9951 25.289 26.1812 25.9758 26.1812H26.5834V27.1914H25.7117C24.3512 27.1914 24.0342 26.8856 24.0342 25.3969V21.0106H22.9116V20.0403H24.0342Z" fill="white"/>
<path d="M29.3169 17.5547V21.1169C29.7264 20.439 30.4132 19.9206 31.6151 19.9206C33.3321 19.9206 33.9529 21.0372 33.9529 22.6721V27.1914H32.751V23.031C32.751 21.9277 32.5661 20.9707 31.1924 20.9707C30.0301 20.9707 29.3169 21.7682 29.3169 23.3101V27.1914H28.115V17.5547H29.3169Z" fill="white"/>
<path d="M42.0246 24.0146H36.5565C36.5961 25.5564 37.7056 26.3008 38.749 26.3008C39.8057 26.3008 40.3868 25.8223 40.6906 25.1178H41.9322C41.6152 26.3407 40.4793 27.3642 38.749 27.3642C36.5037 27.3642 35.2621 25.7425 35.2621 23.6291C35.2621 21.3562 36.7678 19.9206 38.7094 19.9206C40.8887 19.9206 42.1699 21.7416 42.0246 24.0146ZM38.7094 20.9574C37.6528 20.9574 36.6754 21.5423 36.5697 22.9778H40.7566C40.717 21.9676 39.9906 20.9574 38.7094 20.9574Z" fill="white"/>
<path d="M46.9651 20.0137V21.303C46.7142 21.2631 46.4896 21.2498 46.2915 21.2498C45.182 21.2498 44.6273 21.8613 44.6273 23.443V27.1914H43.4254V20.0403H44.6009V21.2897C44.9575 20.4789 45.6707 20.0403 46.6085 20.0004C46.7274 20.0004 46.8198 20.0004 46.9651 20.0137Z" fill="white"/>
<path d="M55.7322 24.2007V23.7487C53.5529 23.9614 52.1661 24.2937 52.1661 25.2773C52.1661 25.9552 52.6812 26.4071 53.5397 26.4071C54.6624 26.4071 55.7322 25.8887 55.7322 24.2007ZM53.2755 27.3642C51.9415 27.3642 50.832 26.6198 50.832 25.3039C50.832 23.6158 52.734 23.1107 55.6397 22.7917V22.6189C55.6397 21.303 54.9265 20.8777 54.0284 20.8777C53.0246 20.8777 52.4566 21.4093 52.4038 22.2999H51.1622C51.2679 20.758 52.6415 19.894 54.0152 19.894C55.9832 19.894 56.8549 20.8245 56.8417 22.8449L56.8285 24.4931C56.8153 25.7027 56.8681 26.5135 57.0134 27.1914H55.7982C55.7586 26.9255 55.719 26.6331 55.7058 26.2077C55.2699 26.9521 54.5435 27.3642 53.2755 27.3642Z" fill="white"/>
<path d="M63.0308 27.1914V26.1679C62.6214 26.8458 61.9742 27.3642 60.7987 27.3642C59.1609 27.3642 58.5269 26.2476 58.5269 24.6127V20.0403H59.7288V24.2538C59.7288 25.3571 59.9005 26.3141 61.2213 26.3141C62.3704 26.3141 63.0308 25.5166 63.0308 23.9747V20.0403H64.2328V27.1914H63.0308Z" fill="white"/>
<path d="M66.4829 20.0403V18.2458H67.6848V20.0403H69.032V21.0106H67.6848V25.2507C67.6848 25.9951 67.7376 26.1812 68.4244 26.1812H69.032V27.1914H68.1603C66.7998 27.1914 66.4829 26.8856 66.4829 25.3969V21.0106H65.3602V20.0403H66.4829Z" fill="white"/>
<path d="M71.189 23.6424C71.189 25.5564 72.2192 26.3008 73.3155 26.3008C74.4118 26.3008 75.442 25.4767 75.442 23.6424C75.442 21.7283 74.4118 20.984 73.3155 20.984C72.2192 20.984 71.189 21.6885 71.189 23.6424ZM73.3155 19.9206C74.9665 19.9206 76.7232 21.0505 76.7232 23.6424C76.7232 26.2343 74.9665 27.3642 73.3155 27.3642C71.6645 27.3642 69.9078 26.2343 69.9078 23.6424C69.9078 21.0505 71.6645 19.9206 73.3155 19.9206Z" fill="white"/>
<path d="M79.3627 23.3101V27.1914H78.1607V20.0403H79.3627V21.1169C79.7721 20.439 80.4325 19.9206 81.5024 19.9206C82.5986 19.9206 83.2326 20.3859 83.5496 21.1834C84.1175 20.2928 84.9364 19.9206 85.9402 19.9206C87.5912 19.9206 88.2384 21.0372 88.2384 22.6721V27.1914H87.0365V23.031C87.0365 21.9277 86.8252 20.9707 85.5176 20.9707C84.4742 20.9707 83.8005 21.7682 83.8005 23.3101V27.1914H82.5986V23.031C82.5986 21.9277 82.3873 20.9707 81.0797 20.9707C80.0363 20.9707 79.3627 21.7682 79.3627 23.3101Z" fill="white"/>
<path d="M90.8591 23.6424C90.8591 25.5564 91.8893 26.3008 92.9855 26.3008C94.0818 26.3008 95.112 25.4767 95.112 23.6424C95.112 21.7283 94.0818 20.984 92.9855 20.984C91.8893 20.984 90.8591 21.6885 90.8591 23.6424ZM92.9855 19.9206C94.6365 19.9206 96.3932 21.0505 96.3932 23.6424C96.3932 26.2343 94.6365 27.3642 92.9855 27.3642C91.3345 27.3642 89.5779 26.2343 89.5779 23.6424C89.5779 21.0505 91.3345 19.9206 92.9855 19.9206Z" fill="white"/>
<path d="M98.1097 20.0403V18.2458H99.3116V20.0403H100.659V21.0106H99.3116V25.2507C99.3116 25.9951 99.3645 26.1812 100.051 26.1812H100.659V27.1914H99.7871C98.4267 27.1914 98.1097 26.8856 98.1097 25.3969V21.0106H96.987V20.0403H98.1097Z" fill="white"/>
<path d="M102.19 20.0403H103.392V27.1914H102.19V20.0403ZM102.19 17.5547H103.392V19.0168H102.19V17.5547Z" fill="white"/>
<path d="M105.682 20.0403L107.61 25.5166L109.539 20.0403H110.78L108.099 27.1914H107.029L104.348 20.0403H105.682Z" fill="white"/>
<path d="M117.88 24.0146H112.412C112.452 25.5564 113.561 26.3008 114.604 26.3008C115.661 26.3008 116.242 25.8223 116.546 25.1178H117.788C117.471 26.3407 116.335 27.3642 114.604 27.3642C112.359 27.3642 111.118 25.7425 111.118 23.6291C111.118 21.3562 112.623 19.9206 114.565 19.9206C116.744 19.9206 118.025 21.7416 117.88 24.0146ZM114.565 20.9574C113.508 20.9574 112.531 21.5423 112.425 22.9778H116.612C116.572 21.9676 115.846 20.9574 114.565 20.9574Z" fill="white"/>
<path d="M118.995 27.1914V25.6628H120.514V27.2977L119.708 29.0389H118.942L119.642 27.1914H118.995Z" fill="white"/>
<path d="M126.608 23.6424C126.608 25.5299 127.612 26.3274 128.682 26.3274C129.91 26.3274 130.716 25.3571 130.716 23.6424C130.716 21.9277 129.91 20.9574 128.682 20.9574C127.612 20.9574 126.608 21.7549 126.608 23.6424ZM125.459 17.5547H126.661V21.1701C127.097 20.4124 127.837 19.9206 128.986 19.9206C130.623 19.9206 132.024 21.303 132.024 23.6424C132.024 26.0217 130.623 27.3642 128.986 27.3642C127.837 27.3642 127.097 26.8724 126.661 26.1147V27.1914H125.459V17.5547Z" fill="white"/>
<path d="M137.79 27.1914V26.1679C137.38 26.8458 136.733 27.3642 135.558 27.3642C133.92 27.3642 133.286 26.2476 133.286 24.6127V20.0403H134.488V24.2538C134.488 25.3571 134.66 26.3141 135.98 26.3141C137.13 26.3141 137.79 25.5166 137.79 23.9747V20.0403H138.992V27.1914H137.79Z" fill="white"/>
<path d="M141.242 20.0403V18.2458H142.444V20.0403H143.791V21.0106H142.444V25.2507C142.444 25.9951 142.497 26.1812 143.184 26.1812H143.791V27.1914H142.919C141.559 27.1914 141.242 26.8856 141.242 25.3969V21.0106H140.119V20.0403H141.242Z" fill="white"/>
<path d="M148.328 20.0403H149.53V21.1701C149.966 20.4124 150.705 19.9206 151.855 19.9206C153.492 19.9206 154.892 21.303 154.892 23.6424C154.892 26.0217 153.492 27.3642 151.855 27.3642C150.705 27.3642 149.966 26.8724 149.53 26.1147V29.5175H148.328V20.0403ZM149.477 23.6424C149.477 25.5299 150.481 26.3274 151.551 26.3274C152.779 26.3274 153.585 25.3571 153.585 23.6424C153.585 21.9277 152.779 20.9574 151.551 20.9574C150.481 20.9574 149.477 21.7549 149.477 23.6424Z" fill="white"/>
<path d="M159.839 20.0137V21.303C159.588 21.2631 159.363 21.2498 159.165 21.2498C158.056 21.2498 157.501 21.8613 157.501 23.443V27.1914H156.299V20.0403H157.475V21.2897C157.831 20.4789 158.545 20.0403 159.482 20.0004C159.601 20.0004 159.694 20.0004 159.839 20.0137Z" fill="white"/>
<path d="M161.684 23.6424C161.684 25.5564 162.714 26.3008 163.811 26.3008C164.907 26.3008 165.937 25.4767 165.937 23.6424C165.937 21.7283 164.907 20.984 163.811 20.984C162.714 20.984 161.684 21.6885 161.684 23.6424ZM163.811 19.9206C165.462 19.9206 167.218 21.0505 167.218 23.6424C167.218 26.2343 165.462 27.3642 163.811 27.3642C162.16 27.3642 160.403 26.2343 160.403 23.6424C160.403 21.0505 162.16 19.9206 163.811 19.9206Z" fill="white"/>
<path d="M169.805 23.6424C169.805 25.5299 170.809 26.3274 171.879 26.3274C173.107 26.3274 173.913 25.3571 173.913 23.6424C173.913 21.9277 173.107 20.9574 171.879 20.9574C170.809 20.9574 169.805 21.7549 169.805 23.6424ZM168.656 17.5547H169.858V21.1701C170.294 20.4124 171.033 19.9206 172.182 19.9206C173.82 19.9206 175.22 21.303 175.22 23.6424C175.22 26.0217 173.82 27.3642 172.182 27.3642C171.033 27.3642 170.294 26.8724 169.858 26.1147V27.1914H168.656V17.5547Z" fill="white"/>
<path d="M181.066 24.2007V23.7487C178.887 23.9614 177.5 24.2937 177.5 25.2773C177.5 25.9552 178.015 26.4071 178.873 26.4071C179.996 26.4071 181.066 25.8887 181.066 24.2007ZM178.609 27.3642C177.275 27.3642 176.166 26.6198 176.166 25.3039C176.166 23.6158 178.068 23.1107 180.973 22.7917V22.6189C180.973 21.303 180.26 20.8777 179.362 20.8777C178.358 20.8777 177.79 21.4093 177.737 22.2999H176.496C176.602 20.758 177.975 19.894 179.349 19.894C181.317 19.894 182.189 20.8245 182.175 22.8449L182.162 24.4931C182.149 25.7027 182.202 26.5135 182.347 27.1914H181.132C181.092 26.9255 181.053 26.6331 181.039 26.2077C180.604 26.9521 179.877 27.3642 178.609 27.3642Z" fill="white"/>
<path d="M185.115 23.6424C185.115 25.5299 186.119 26.3274 187.189 26.3274C188.417 26.3274 189.223 25.3571 189.223 23.6424C189.223 21.9277 188.417 20.9574 187.189 20.9574C186.119 20.9574 185.115 21.7549 185.115 23.6424ZM183.966 17.5547H185.168V21.1701C185.604 20.4124 186.344 19.9206 187.493 19.9206C189.131 19.9206 190.531 21.303 190.531 23.6424C190.531 26.0217 189.131 27.3642 187.493 27.3642C186.344 27.3642 185.604 26.8724 185.168 26.1147V27.1914H183.966V17.5547Z" fill="white"/>
<path d="M193.101 17.5547V27.1914H191.899V17.5547H193.101Z" fill="white"/>
<path d="M198.956 20.0403H200.211L197.675 27.4971C197.147 29.0389 196.804 29.5175 195.205 29.5175H194.585V28.5073H195.073C195.866 28.5073 196.249 28.4541 196.566 27.3376L196.619 27.1914L194.056 20.0403H195.39L197.2 25.5564L198.956 20.0403Z" fill="white"/>
<path d="M0.950973 37.4221H2.1529V44.5732H0.950973V37.4221ZM0.950973 34.9365H2.1529V36.3986H0.950973V34.9365Z" fill="white"/>
<path d="M4.40289 37.4221V35.6277H5.60482V37.4221H6.95203V38.3924H5.60482V42.6326C5.60482 43.3769 5.65765 43.563 6.34446 43.563H6.95203V44.5732H6.0803C4.71988 44.5732 4.40289 44.2675 4.40289 42.7788V38.3924H3.28022V37.4221H4.40289Z" fill="white"/>
<path d="M13.2588 42.7123L14.6721 37.4221H15.9136L17.3269 42.7123L18.6873 37.4221H19.9817L17.9344 44.5732H16.8382L15.2664 38.8178L13.7475 44.5732H12.6513L10.604 37.4221H11.8984L13.2588 42.7123Z" fill="white"/>
<path d="M20.9951 37.4221H22.197V44.5732H20.9951V37.4221ZM20.9951 34.9365H22.197V36.3986H20.9951V34.9365Z" fill="white"/>
<path d="M25.3055 34.9365V44.5732H24.1036V34.9365H25.3055Z" fill="white"/>
<path d="M28.414 34.9365V44.5732H27.2121V34.9365H28.414Z" fill="white"/>
<path d="M34.6568 37.4221V38.4988C35.0663 37.8209 35.7531 37.3025 36.955 37.3025C38.6721 37.3025 39.2928 38.419 39.2928 40.0539V44.5732H38.0909V40.4128C38.0909 39.3096 37.906 38.3526 36.5324 38.3526C35.3701 38.3526 34.6568 39.1501 34.6568 40.6919V44.5732H33.4549V37.4221H34.6568Z" fill="white"/>
<path d="M47.3645 41.3964H41.8965C41.9361 42.9383 43.0455 43.6826 44.089 43.6826C45.1456 43.6826 45.7268 43.2041 46.0305 42.4997H47.2721C46.9551 43.7225 45.8192 44.746 44.089 44.746C41.8436 44.746 40.6021 43.1244 40.6021 41.011C40.6021 38.738 42.1078 37.3025 44.0494 37.3025C46.2287 37.3025 47.5098 39.1235 47.3645 41.3964ZM44.0494 38.3393C42.9927 38.3393 42.0153 38.9241 41.9097 40.3596H46.0966C46.057 39.3495 45.3305 38.3393 44.0494 38.3393Z" fill="white"/>
<path d="M49.0839 37.4221L51.0122 42.8984L52.9406 37.4221H54.1821L51.5009 44.5732H50.4311L47.7498 37.4221H49.0839Z" fill="white"/>
<path d="M61.2819 41.3964H55.8138C55.8534 42.9383 56.9629 43.6826 58.0063 43.6826C59.063 43.6826 59.6441 43.2041 59.9479 42.4997H61.1895C60.8725 43.7225 59.7366 44.746 58.0063 44.746C55.761 44.746 54.5194 43.1244 54.5194 41.011C54.5194 38.738 56.0251 37.3025 57.9667 37.3025C60.146 37.3025 61.4272 39.1235 61.2819 41.3964ZM57.9667 38.3393C56.9101 38.3393 55.9327 38.9241 55.827 40.3596H60.0139C59.9743 39.3495 59.2479 38.3393 57.9667 38.3393Z" fill="white"/>
<path d="M66.2224 37.3955V38.6849C65.9715 38.645 65.7469 38.6317 65.5488 38.6317C64.4393 38.6317 63.8846 39.2431 63.8846 40.8249V44.5732H62.6827V37.4221H63.8582V38.6716C64.2148 37.8607 64.928 37.4221 65.8658 37.3822C65.9847 37.3822 66.0771 37.3822 66.2224 37.3955Z" fill="white"/>
<path d="M75.8348 39.509H74.5801C74.3819 38.6583 73.748 38.326 72.9026 38.326C72.2026 38.326 71.4101 38.5785 71.4101 39.2298C71.4101 39.8014 71.8064 40.0539 72.4932 40.2001L73.497 40.3995C74.7914 40.6388 75.9273 41.1572 75.9273 42.5262C75.9273 43.9485 74.6593 44.746 73.0347 44.746C71.1724 44.746 70.129 43.5099 69.9837 42.2604H71.2517C71.4498 43.1776 72.0045 43.7225 73.0611 43.7225C73.9725 43.7225 74.7121 43.3371 74.7121 42.6592C74.7121 41.9281 74.0385 41.649 73.2725 41.4762L72.2158 41.2635C71.2516 41.0508 70.195 40.6255 70.195 39.283C70.195 38.0203 71.463 37.2892 73.0347 37.2892C74.5801 37.2892 75.6103 38.1399 75.8348 39.509Z" fill="white"/>
<path d="M83.7251 41.3964H78.257C78.2966 42.9383 79.4061 43.6826 80.4495 43.6826C81.5062 43.6826 82.0873 43.2041 82.3911 42.4997H83.6327C83.3157 43.7225 82.1798 44.746 80.4495 44.746C78.2042 44.746 76.9626 43.1244 76.9626 41.011C76.9626 38.738 78.4684 37.3025 80.4099 37.3025C82.5892 37.3025 83.8704 39.1235 83.7251 41.3964ZM80.4099 38.3393C79.3533 38.3393 78.3759 38.9241 78.2702 40.3596H82.4572C82.4175 39.3495 81.6911 38.3393 80.4099 38.3393Z" fill="white"/>
<path d="M91.4642 41.3964H85.9961C86.0357 42.9383 87.1452 43.6826 88.1886 43.6826C89.2452 43.6826 89.8264 43.2041 90.1301 42.4997H91.3717C91.0547 43.7225 89.9188 44.746 88.1886 44.746C85.9432 44.746 84.7017 43.1244 84.7017 41.011C84.7017 38.738 86.2074 37.3025 88.149 37.3025C90.3283 37.3025 91.6094 39.1235 91.4642 41.3964ZM88.149 38.3393C87.0923 38.3393 86.1149 38.9241 86.0093 40.3596H90.1962C90.1566 39.3495 89.4301 38.3393 88.149 38.3393Z" fill="white"/>
<path d="M100.477 41.5825V41.1306C98.2974 41.3433 96.9106 41.6756 96.9106 42.6592C96.9106 43.3371 97.4257 43.789 98.2842 43.789C99.4069 43.789 100.477 43.2706 100.477 41.5825ZM98.02 44.746C96.686 44.746 95.5766 44.0017 95.5766 42.6858C95.5766 40.9977 97.4785 40.4926 100.384 40.1736V40.0008C100.384 38.6849 99.671 38.2595 98.7729 38.2595C97.7691 38.2595 97.2012 38.7912 97.1483 39.6818H95.9068C96.0124 38.1399 97.3861 37.2759 98.7597 37.2759C100.728 37.2759 101.599 38.2063 101.586 40.2267L101.573 41.8749C101.56 43.0845 101.613 43.8953 101.758 44.5732H100.543C100.503 44.3074 100.464 44.0149 100.45 43.5896C100.014 44.334 99.288 44.746 98.02 44.746Z" fill="white"/>
<path d="M108.281 42.7123L109.695 37.4221H110.936L112.349 42.7123L113.71 37.4221H115.004L112.957 44.5732H111.861L110.289 38.8178L108.77 44.5732H107.674L105.626 37.4221H106.921L108.281 42.7123Z" fill="white"/>
<path d="M116.772 41.0242C116.772 42.9383 117.802 43.6826 118.898 43.6826C119.995 43.6826 121.025 42.8585 121.025 41.0242C121.025 39.1102 119.995 38.3658 118.898 38.3658C117.802 38.3658 116.772 39.0703 116.772 41.0242ZM118.898 37.3025C120.549 37.3025 122.306 38.4323 122.306 41.0242C122.306 43.6162 120.549 44.746 118.898 44.746C117.247 44.746 115.491 43.6162 115.491 41.0242C115.491 38.4323 117.247 37.3025 118.898 37.3025Z" fill="white"/>
<path d="M127.283 37.3955V38.6849C127.032 38.645 126.808 38.6317 126.61 38.6317C125.5 38.6317 124.946 39.2431 124.946 40.8249V44.5732H123.744V37.4221H124.919V38.6716C125.276 37.8607 125.989 37.4221 126.927 37.3822C127.046 37.3822 127.138 37.3822 127.283 37.3955Z" fill="white"/>
<path d="M129.641 34.9365V44.5732H128.439V34.9365H129.641Z" fill="white"/>
<path d="M136.421 38.5519V34.9365H137.623V44.5732H136.421V43.4966C135.985 44.2542 135.245 44.746 134.096 44.746C132.459 44.746 131.059 43.4035 131.059 41.0242C131.059 38.6849 132.459 37.3025 134.096 37.3025C135.245 37.3025 135.985 37.7943 136.421 38.5519ZM136.474 41.0242C136.474 39.1368 135.47 38.3393 134.4 38.3393C133.172 38.3393 132.366 39.3096 132.366 41.0242C132.366 42.7389 133.172 43.7092 134.4 43.7092C135.47 43.7092 136.474 42.9117 136.474 41.0242Z" fill="white"/>
<path d="M147.526 38.5519V34.9365H148.728V44.5732H147.526V43.4966C147.091 44.2542 146.351 44.746 145.202 44.746C143.564 44.746 142.164 43.4035 142.164 41.0242C142.164 38.6849 143.564 37.3025 145.202 37.3025C146.351 37.3025 147.091 37.7943 147.526 38.5519ZM147.579 41.0242C147.579 39.1368 146.575 38.3393 145.506 38.3393C144.277 38.3393 143.472 39.3096 143.472 41.0242C143.472 42.7389 144.277 43.7092 145.506 43.7092C146.575 43.7092 147.579 42.9117 147.579 41.0242Z" fill="white"/>
<path d="M155.022 44.5732V43.5497C154.613 44.2276 153.966 44.746 152.79 44.746C151.152 44.746 150.518 43.6295 150.518 41.9946V37.4221H151.72V41.6357C151.72 42.7389 151.892 43.6959 153.213 43.6959C154.362 43.6959 155.022 42.8984 155.022 41.3566V37.4221H156.224V44.5732H155.022Z" fill="white"/>
<path d="M164.405 41.3964H158.936C158.976 42.9383 160.086 43.6826 161.129 43.6826C162.186 43.6826 162.767 43.2041 163.071 42.4997H164.312C163.995 43.7225 162.859 44.746 161.129 44.746C158.884 44.746 157.642 43.1244 157.642 41.011C157.642 38.738 159.148 37.3025 161.089 37.3025C163.269 37.3025 164.55 39.1235 164.405 41.3964ZM161.089 38.3393C160.033 38.3393 159.055 38.9241 158.95 40.3596H163.137C163.097 39.3495 162.371 38.3393 161.089 38.3393Z" fill="white"/>
<path d="M169.283 37.4221V35.6277H170.485V37.4221H171.832V38.3924H170.485V42.6326C170.485 43.3769 170.538 43.563 171.225 43.563H171.832V44.5732H170.96C169.6 44.5732 169.283 44.2675 169.283 42.7788V38.3924H168.16V37.4221H169.283Z" fill="white"/>
<path d="M173.989 41.0242C173.989 42.9383 175.019 43.6826 176.116 43.6826C177.212 43.6826 178.242 42.8585 178.242 41.0242C178.242 39.1102 177.212 38.3658 176.116 38.3658C175.019 38.3658 173.989 39.0703 173.989 41.0242ZM176.116 37.3025C177.767 37.3025 179.523 38.4323 179.523 41.0242C179.523 43.6162 177.767 44.746 176.116 44.746C174.465 44.746 172.708 43.6162 172.708 41.0242C172.708 38.4323 174.465 37.3025 176.116 37.3025Z" fill="white"/>
<path d="M2.1529 58.0738V61.9551H0.950973V54.804H2.1529V55.8806C2.56234 55.2027 3.22274 54.6843 4.29259 54.6843C5.38885 54.6843 6.02283 55.1496 6.33982 55.9471C6.90776 55.0565 7.72665 54.6843 8.73046 54.6843C10.3815 54.6843 11.0286 55.8009 11.0286 57.4358V61.9551H9.82672V57.7947C9.82672 56.6914 9.61539 55.7344 8.3078 55.7344C7.26437 55.7344 6.59077 56.5319 6.59077 58.0738V61.9551H5.38885V57.7947C5.38885 56.6914 5.17752 55.7344 3.86993 55.7344C2.8265 55.7344 2.1529 56.5319 2.1529 58.0738Z" fill="white"/>
<path d="M17.3079 58.9644V58.5124C15.1286 58.7251 13.7417 59.0574 13.7417 60.041C13.7417 60.7189 14.2569 61.1708 15.1154 61.1708C16.238 61.1708 17.3079 60.6525 17.3079 58.9644ZM14.8512 62.1279C13.5172 62.1279 12.4077 61.3835 12.4077 60.0676C12.4077 58.3795 14.3097 57.8744 17.2154 57.5554V57.3826C17.2154 56.0667 16.5022 55.6414 15.6041 55.6414C14.6003 55.6414 14.0323 56.173 13.9795 57.0636H12.7379C12.8436 55.5217 14.2172 54.6578 15.5909 54.6578C17.5588 54.6578 18.4306 55.5882 18.4174 57.6086L18.4041 59.2568C18.3909 60.4664 18.4438 61.2772 18.5891 61.9551H17.3739C17.3343 61.6892 17.2947 61.3968 17.2815 60.9715C16.8456 61.7158 16.1192 62.1279 14.8512 62.1279Z" fill="white"/>
<path d="M23.748 54.7774V56.0667C23.4971 56.0268 23.2725 56.0135 23.0744 56.0135C21.9649 56.0135 21.4102 56.625 21.4102 58.2067V61.9551H20.2083V54.804H21.3838V56.0534C21.7404 55.2426 22.4536 54.804 23.3914 54.7641C23.5103 54.7641 23.6027 54.7641 23.748 54.7774Z" fill="white"/>
<path d="M24.9033 52.3184H26.1052V58.0206L28.9713 54.804H30.4506L27.743 57.7681L30.8205 61.9551H29.3544L26.9373 58.6587L26.1052 59.5625V61.9551H24.9033V52.3184Z" fill="white"/>
<path d="M37.6521 58.7783H32.184C32.2236 60.3202 33.3331 61.0645 34.3765 61.0645C35.4331 61.0645 36.0143 60.586 36.3181 59.8815H37.5596C37.2426 61.1044 36.1067 62.1279 34.3765 62.1279C32.1311 62.1279 30.8896 60.5062 30.8896 58.3928C30.8896 56.1199 32.3953 54.6843 34.3369 54.6843C36.5162 54.6843 37.7973 56.5053 37.6521 58.7783ZM34.3369 55.7211C33.2802 55.7211 32.3028 56.306 32.1972 57.7415H36.3841C36.3445 56.7313 35.618 55.7211 34.3369 55.7211Z" fill="white"/>
<path d="M39.3962 54.804V53.0096H40.5982V54.804H41.9454V55.7743H40.5982V60.0144C40.5982 60.7588 40.651 60.9449 41.3378 60.9449H41.9454V61.9551H41.0736C39.7132 61.9551 39.3962 61.6494 39.3962 60.1606V55.7743H38.2736V54.804H39.3962Z" fill="white"/>
<path d="M96.935 54.804V54.2856C96.935 52.7969 97.2256 52.3184 98.8502 52.3184H99.471V53.3286H98.8766C98.2426 53.3286 98.137 53.4748 98.137 54.2191V54.804H99.471V55.7743H98.137V61.9551H96.935V55.7743H95.9444V54.804H96.935Z" fill="white"/>
<path d="M100.772 54.804H101.974V61.9551H100.772V54.804ZM100.772 52.3184H101.974V53.7805H100.772V52.3184Z" fill="white"/>
<path d="M105.082 54.804V55.8806C105.492 55.2027 106.178 54.6843 107.38 54.6843C109.097 54.6843 109.718 55.8009 109.718 57.4358V61.9551H108.516V57.7947C108.516 56.6914 108.331 55.7344 106.958 55.7344C105.795 55.7344 105.082 56.5319 105.082 58.0738V61.9551H103.88V54.804H105.082Z" fill="white"/>
<path d="M115.993 58.9644V58.5124C113.814 58.7251 112.427 59.0574 112.427 60.041C112.427 60.7189 112.942 61.1708 113.801 61.1708C114.924 61.1708 115.993 60.6525 115.993 58.9644ZM113.537 62.1279C112.203 62.1279 111.093 61.3835 111.093 60.0676C111.093 58.3795 112.995 57.8744 115.901 57.5554V57.3826C115.901 56.0667 115.188 55.6414 114.29 55.6414C113.286 55.6414 112.718 56.173 112.665 57.0636H111.424C111.529 55.5217 112.903 54.6578 114.276 54.6578C116.244 54.6578 117.116 55.5882 117.103 57.6086L117.09 59.2568C117.077 60.4664 117.129 61.2772 117.275 61.9551H116.06C116.02 61.6892 115.98 61.3968 115.967 60.9715C115.531 61.7158 114.805 62.1279 113.537 62.1279Z" fill="white"/>
<path d="M120.096 54.804V55.8806C120.505 55.2027 121.192 54.6843 122.394 54.6843C124.111 54.6843 124.732 55.8009 124.732 57.4358V61.9551H123.53V57.7947C123.53 56.6914 123.345 55.7344 121.971 55.7344C120.809 55.7344 120.096 56.5319 120.096 58.0738V61.9551H118.894V54.804H120.096Z" fill="white"/>
<path d="M129.475 54.6843C131.219 54.6843 132.275 55.9737 132.447 57.1965H131.232C131.06 56.3458 130.334 55.7477 129.396 55.7477C128.339 55.7477 127.349 56.5851 127.349 58.3795C127.349 60.1872 128.339 61.0645 129.396 61.0645C130.413 61.0645 131.113 60.3733 131.285 59.629H132.526C132.275 60.9715 131.02 62.1279 129.356 62.1279C127.309 62.1279 126.041 60.5727 126.041 58.3928C126.041 56.2661 127.375 54.6843 129.475 54.6843Z" fill="white"/>
<path d="M133.882 54.804H135.084V61.9551H133.882V54.804ZM133.882 52.3184H135.084V53.7805H133.882V52.3184Z" fill="white"/>
<path d="M141.468 58.9644V58.5124C139.289 58.7251 137.902 59.0574 137.902 60.041C137.902 60.7189 138.417 61.1708 139.275 61.1708C140.398 61.1708 141.468 60.6525 141.468 58.9644ZM139.011 62.1279C137.677 62.1279 136.568 61.3835 136.568 60.0676C136.568 58.3795 138.47 57.8744 141.375 57.5554V57.3826C141.375 56.0667 140.662 55.6414 139.764 55.6414C138.76 55.6414 138.192 56.173 138.139 57.0636H136.898C137.004 55.5217 138.377 54.6578 139.751 54.6578C141.719 54.6578 142.59 55.5882 142.577 57.6086L142.564 59.2568C142.551 60.4664 142.604 61.2772 142.749 61.9551H141.534C141.494 61.6892 141.455 61.3968 141.441 60.9715C141.006 61.7158 140.279 62.1279 139.011 62.1279Z" fill="white"/>
<path d="M145.57 52.3184V61.9551H144.368V52.3184H145.57Z" fill="white"/>
<path d="M155.934 56.8908H154.679C154.481 56.0401 153.847 55.7078 153.002 55.7078C152.302 55.7078 151.509 55.9604 151.509 56.6117C151.509 57.1832 151.905 57.4358 152.592 57.582L153.596 57.7814C154.89 58.0206 156.026 58.539 156.026 59.9081C156.026 61.3303 154.758 62.1279 153.134 62.1279C151.271 62.1279 150.228 60.8917 150.083 59.6423H151.351C151.549 60.5594 152.104 61.1044 153.16 61.1044C154.072 61.1044 154.811 60.7189 154.811 60.041C154.811 59.31 154.138 59.0308 153.371 58.858L152.315 58.6454C151.351 58.4327 150.294 58.0073 150.294 56.6648C150.294 55.4021 151.562 54.6711 153.134 54.6711C154.679 54.6711 155.709 55.5217 155.934 56.8908Z" fill="white"/>
<path d="M157.55 54.804H158.752V61.9551H157.55V54.804ZM157.55 52.3184H158.752V53.7805H157.55V52.3184Z" fill="white"/>
<path d="M161.002 54.804V53.0096H162.204V54.804H163.551V55.7743H162.204V60.0144C162.204 60.7588 162.257 60.9449 162.944 60.9449H163.551V61.9551H162.68C161.319 61.9551 161.002 61.6494 161.002 60.1606V55.7743H159.88V54.804H161.002Z" fill="white"/>
<path d="M169.352 61.9551V60.9316C168.943 61.6095 168.296 62.1279 167.12 62.1279C165.482 62.1279 164.848 61.0113 164.848 59.3764V54.804H166.05V59.0175C166.05 60.1208 166.222 61.0778 167.543 61.0778C168.692 61.0778 169.352 60.2803 169.352 58.7384V54.804H170.554V61.9551H169.352Z" fill="white"/>
<path d="M176.938 58.9644V58.5124C174.759 58.7251 173.372 59.0574 173.372 60.041C173.372 60.7189 173.887 61.1708 174.746 61.1708C175.869 61.1708 176.938 60.6525 176.938 58.9644ZM174.482 62.1279C173.148 62.1279 172.038 61.3835 172.038 60.0676C172.038 58.3795 173.94 57.8744 176.846 57.5554V57.3826C176.846 56.0667 176.133 55.6414 175.235 55.6414C174.231 55.6414 173.663 56.173 173.61 57.0636H172.368C172.474 55.5217 173.848 54.6578 175.221 54.6578C177.189 54.6578 178.061 55.5882 178.048 57.6086L178.035 59.2568C178.021 60.4664 178.074 61.2772 178.22 61.9551H177.004C176.965 61.6892 176.925 61.3968 176.912 60.9715C176.476 61.7158 175.75 62.1279 174.482 62.1279Z" fill="white"/>
<path d="M180.182 54.804V53.0096H181.384V54.804H182.731V55.7743H181.384V60.0144C181.384 60.7588 181.437 60.9449 182.124 60.9449H182.731V61.9551H181.86C180.499 61.9551 180.182 61.6494 180.182 60.1606V55.7743H179.06V54.804H180.182Z" fill="white"/>
<path d="M184.263 54.804H185.465V61.9551H184.263V54.804ZM184.263 52.3184H185.465V53.7805H184.263V52.3184Z" fill="white"/>
<path d="M188.19 58.4061C188.19 60.3202 189.221 61.0645 190.317 61.0645C191.413 61.0645 192.443 60.2404 192.443 58.4061C192.443 56.4921 191.413 55.7477 190.317 55.7477C189.221 55.7477 188.19 56.4522 188.19 58.4061ZM190.317 54.6843C191.968 54.6843 193.724 55.8142 193.724 58.4061C193.724 60.998 191.968 62.1279 190.317 62.1279C188.666 62.1279 186.909 60.998 186.909 58.4061C186.909 55.8142 188.666 54.6843 190.317 54.6843Z" fill="white"/>
<path d="M196.364 54.804V55.8806C196.773 55.2027 197.46 54.6843 198.662 54.6843C200.379 54.6843 201 55.8009 201 57.4358V61.9551H199.798V57.7947C199.798 56.6914 199.613 55.7344 198.24 55.7344C197.077 55.7344 196.364 56.5319 196.364 58.0738V61.9551H195.162V54.804H196.364Z" fill="white"/>
<path d="M0 15.9443H47.7518V30.2587H0V15.9443Z" fill="var(--fill-0, #E8E8E8)"/>
<path d="M94.4877 33.3261H139.192V47.6406H94.4877V33.3261Z" fill="var(--fill-0, #E8E8E8)"/>
<path d="M0 49.6855H91.4397V64H0V49.6855Z" fill="var(--fill-0, #E8E8E8)"/>
</g>
</g>
<defs>
<clipPath id="clip0_0_4">
<rect width="201" height="64" fill="white"/>
</clipPath>
</defs>
</svg>
