<svg preserveAspectRatio="none" width="100%" height="100%" overflow="visible" style="display: block;" viewBox="0 0 8.88839 5.93007" fill="none" xmlns="http://www.w3.org/2000/svg">
<g id="Group 1236">
<g id="Vector">
<path fill-rule="evenodd" clip-rule="evenodd" d="M7.78787 0.906616C7.78886 0.857403 7.79813 0.51239 7.79886 0.465791H7.88346C8.2103 0.465791 8.26516 0.523108 8.29556 0.906616H7.78787ZM8.718 0.715058C8.66675 0.285932 8.46386 0.0626107 7.98486 0.0626107C7.53934 0.0626107 7.37559 0.0626107 7.37559 0.0626107L7.29276 2.48672H7.7367C7.7367 2.48672 7.77769 1.36241 7.78006 1.30921C7.82874 1.30921 8.29485 1.3098 8.34103 1.3098C8.34617 1.35875 8.43005 2.48672 8.43005 2.48672H8.88839C8.88839 2.48672 8.73063 0.821458 8.718 0.715058Z" fill="var(--fill-0, #FFFFFE)"/>
<path fill-rule="evenodd" clip-rule="evenodd" d="M0 0.0626107V2.4862H0.448676V0.46566H1.00472V2.4862H1.45412V0.0626107H0Z" fill="#FFFFFE"/>
<path fill-rule="evenodd" clip-rule="evenodd" d="M4.74656 0.906682H4.50229C4.40131 0.906682 4.32637 0.884199 4.27861 0.838973C4.24493 0.807472 4.22841 0.76486 4.22841 0.709307V0.0626107H3.77869V0.754533C3.77869 0.914067 3.84224 1.04896 3.96763 1.15614C4.09125 1.26228 4.24262 1.31574 4.41828 1.31574H4.74656V2.4862H5.19563V0.0626107H4.74656V0.906682Z" fill="#FFFFFE"/>
<path fill-rule="evenodd" clip-rule="evenodd" d="M5.69279 0.0626107V0.46566H6.06568V2.4862H6.51988V0.46566H6.89277V0.0626107H5.69279Z" fill="#FFFFFE"/>
<path fill-rule="evenodd" clip-rule="evenodd" d="M2.32366 1.27875C2.32366 1.27862 2.32366 1.27862 2.32366 1.27849C2.32734 0.622515 2.49056 0.406645 2.66273 0.403377C2.83483 0.406645 2.99805 0.622515 3.00174 1.27849C3.00174 1.27862 3.00174 1.27862 3.00174 1.27875C2.99805 1.91944 2.83483 2.13831 2.66273 2.14158C2.49063 2.13831 2.32741 1.91944 2.32366 1.27875ZM3.44876 1.18889C3.441 0.842176 3.38107 0.593693 3.28824 0.417232C3.14193 0.115615 2.90884 0.00300637 2.66819 0.000130712C2.66766 0.000130712 2.66713 0 2.66667 0C2.66536 0 2.66404 6.53559e-05 2.66273 6.53559e-05C2.66141 6.53559e-05 2.66009 0 2.65878 0C2.65825 0 2.65779 0.000130712 2.65726 0.000130712C2.41655 0.00300637 2.18352 0.115615 2.03721 0.417232C1.94432 0.593693 1.88445 0.842176 1.87662 1.18889C1.87662 1.18941 1.87563 1.2666 1.87563 1.26725L1.8757 1.26718C1.87596 1.48325 1.90011 1.69265 1.94748 1.86134C2.0707 2.35804 2.35543 2.53365 2.65266 2.53901C2.6547 2.53901 2.65687 2.53927 2.65878 2.53927C2.66009 2.53927 2.66141 2.53914 2.66273 2.53914C2.66404 2.53914 2.66536 2.53927 2.66667 2.53927C2.66858 2.53927 2.67082 2.53901 2.67279 2.53901C2.97002 2.53365 3.25475 2.35804 3.37798 1.86134C3.42534 1.69265 3.44955 1.48325 3.44975 1.26718L3.44982 1.26725C3.44982 1.2666 3.44876 1.18941 3.44876 1.18889Z" fill="var(--fill-0, #FFFFFE)"/>
</g>
<g id="Vector_2">
<path fill-rule="evenodd" clip-rule="evenodd" d="M2.40115 4.34951C2.40214 4.30023 2.41135 3.95521 2.41214 3.90862L2.49167 3.90365C2.81858 3.90365 2.87838 3.96606 2.90884 4.34951H2.40115ZM3.33118 4.15788C3.27999 3.72889 3.07704 3.5055 2.59803 3.5055C2.15251 3.5055 1.98877 3.5055 1.98877 3.5055L1.90594 5.92968H2.34988C2.34988 5.92968 2.39087 4.80536 2.3933 4.7521C2.44198 4.7521 2.90809 4.75262 2.95421 4.75262C2.95934 4.80164 3.04322 5.92968 3.04322 5.92968H3.50157C3.50157 5.92968 3.34387 4.26435 3.33118 4.15788Z" fill="var(--fill-0, #FFFFFE)"/>
<path fill-rule="evenodd" clip-rule="evenodd" d="M5.03399 3.50537V4.2801H4.41802V3.50537H3.97006V5.93007H4.41802V4.68321H5.03399V5.93007H5.48195V3.50537H5.03399Z" fill="#FFFFFE"/>
<path fill-rule="evenodd" clip-rule="evenodd" d="M0.602042 5.5548C0.558424 5.5548 0.448755 5.5448 0.448755 5.5448V4.69151C0.448755 4.69151 0.484017 4.68334 0.522569 4.68334C0.750131 4.68334 1.01921 4.67001 1.01921 5.11861C1.01921 5.5299 0.723618 5.5548 0.602042 5.5548ZM0.65637 4.29875C0.579068 4.29875 0.510385 4.30052 0.448742 4.30346V3.90864H1.25399V3.50553H0V5.92918C0 5.92918 0.235588 5.92918 0.681106 5.92918C1.36004 5.92918 1.4653 5.32961 1.4653 5.10766C1.4653 4.84493 1.3607 4.29875 0.65637 4.29875Z" fill="var(--fill-0, #FFFFFE)"/>
<path fill-rule="evenodd" clip-rule="evenodd" d="M7.71728 5.92929L7.17723 4.50858C7.28933 4.42571 7.37663 4.26677 7.41544 4.10861C7.45314 3.95476 7.50261 3.50537 7.50261 3.50537C7.39591 3.50537 7.09927 3.50537 7.06098 3.50537C7.05828 3.55119 7.04868 3.7049 7.03486 3.86123C7.01447 4.09305 6.94578 4.30676 6.7071 4.30676H6.52296C6.52263 4.28735 6.52296 3.50537 6.52296 3.50537H6.07389V5.93007H6.52296V4.69903C6.52296 4.69903 6.76052 4.69929 6.79408 4.69903L7.23519 5.92929H7.71728Z" fill="#FFFFFE"/>
</g>
</g>
</svg>
