<svg preserveAspectRatio="none" width="100%" height="100%" overflow="visible" style="display: block;" viewBox="0 0 620 92" fill="none" xmlns="http://www.w3.org/2000/svg">
<g id="PB / logo">
<g id="Vector">
<path fill-rule="evenodd" clip-rule="evenodd" d="M268.02 33.4154C268.053 31.6851 268.373 19.5548 268.398 17.9165H271.309C282.557 17.9165 284.446 19.9317 285.492 33.4154H268.02ZM300.03 26.6804C298.266 11.5928 291.284 3.74106 274.799 3.74106C259.466 3.74106 253.831 3.74106 253.831 3.74106L250.98 88.9704H266.259C266.259 88.9704 267.669 49.4406 267.751 47.5701C269.426 47.5701 285.467 47.5908 287.057 47.5908C287.233 49.3119 290.12 88.9704 290.12 88.9704H305.894C305.894 88.9704 300.465 30.4213 300.03 26.6804Z" fill="var(--fill-0, #FFFFFE)"/>
<path fill-rule="evenodd" clip-rule="evenodd" d="M0 3.74106V88.952H15.4412V17.9119H34.5774V88.952H50.0435V3.74106H0Z" fill="#FFFFFE"/>
<path fill-rule="evenodd" clip-rule="evenodd" d="M163.353 33.4177H154.946C151.471 33.4177 148.892 32.6273 147.248 31.0372C146.089 29.9296 145.521 28.4314 145.521 26.4782V3.74106H130.043V28.0683C130.043 33.6774 132.231 38.4201 136.546 42.1886C140.8 45.9203 146.01 47.7999 152.055 47.7999H163.353V88.952H178.808V3.74106H163.353V33.4177Z" fill="#FFFFFE"/>
<path fill-rule="evenodd" clip-rule="evenodd" d="M195.917 3.74106V17.9119H208.75V88.952H224.382V17.9119H237.215V3.74106H195.917Z" fill="#FFFFFE"/>
<path fill-rule="evenodd" clip-rule="evenodd" d="M79.9686 46.4994C79.9686 46.4948 79.9686 46.4948 79.9686 46.4902C80.0954 23.4267 85.7126 15.8369 91.6378 15.7221C97.5607 15.8369 103.178 23.4267 103.305 46.4902C103.305 46.4948 103.305 46.4948 103.305 46.4994C103.178 69.0251 97.5607 76.7206 91.6378 76.8355C85.7149 76.7206 80.0977 69.0251 79.9686 46.4994ZM118.689 43.3398C118.422 31.1498 116.359 22.4134 113.165 16.2092C108.129 5.60462 100.108 1.64544 91.8256 1.54433C91.8075 1.54433 91.7894 1.53974 91.7735 1.53974C91.7283 1.53974 91.683 1.54203 91.6377 1.54203C91.5924 1.54203 91.5471 1.53974 91.5018 1.53974C91.4837 1.53974 91.4679 1.54433 91.4498 1.54433C83.1654 1.64544 75.146 5.60462 70.1106 16.2092C66.9137 22.4134 64.8533 31.1498 64.5839 43.3398C64.5839 43.3582 64.55 46.072 64.55 46.0949L64.5522 46.0926C64.5613 53.6893 65.3922 61.0516 67.0224 66.9823C71.263 84.446 81.0621 90.6203 91.2913 90.8087C91.3615 90.8087 91.4362 90.8179 91.5018 90.8179C91.5471 90.8179 91.5924 90.8133 91.6377 90.8133C91.683 90.8133 91.7283 90.8179 91.7735 90.8179C91.8392 90.8179 91.9162 90.8087 91.9841 90.8087C102.213 90.6203 112.012 84.446 116.253 66.9823C117.883 61.0516 118.716 53.6893 118.723 46.0926L118.725 46.0949C118.725 46.072 118.689 43.3582 118.689 43.3398Z" fill="var(--fill-0, #FFFFFE)"/>
</g>
<g id="Vector_2">
<path fill-rule="evenodd" clip-rule="evenodd" d="M439.744 32.9992C439.778 31.2864 440.09 19.2946 440.117 17.6749L442.814 17.5023C453.898 17.5023 455.926 19.6717 456.959 32.9992H439.744ZM471.279 26.3388C469.543 11.428 462.662 3.66365 446.42 3.66365C431.314 3.66365 425.762 3.66365 425.762 3.66365L422.953 87.9221H438.006C438.006 87.9221 439.396 48.8436 439.478 46.9923C441.129 46.9923 456.933 47.0104 458.497 47.0104C458.671 48.7141 461.515 87.9221 461.515 87.9221H477.056C477.056 87.9221 471.709 30.0393 471.279 26.3388Z" fill="var(--fill-0, #FFFFFE)"/>
<path fill-rule="evenodd" clip-rule="evenodd" d="M529.017 3.65918V30.5868H508.131V3.65918H492.942V87.9358H508.131V44.5981H529.017V87.9358H544.205V3.65918H529.017Z" fill="#FFFFFE"/>
<path fill-rule="evenodd" clip-rule="evenodd" d="M378.742 74.8922C377.263 74.8922 373.544 74.5446 373.544 74.5446V44.8865C373.544 44.8865 374.74 44.6026 376.047 44.6026C383.763 44.6026 392.886 44.1392 392.886 59.7315C392.886 74.0267 382.864 74.8922 378.742 74.8922ZM380.584 31.2351C377.963 31.2351 375.634 31.2964 373.544 31.3986V17.6759H400.847V3.66459H358.328V87.9048C358.328 87.9048 366.316 87.9048 381.423 87.9048C404.443 87.9048 408.012 67.0651 408.012 59.3507C408.012 50.2189 404.466 31.2351 380.584 31.2351Z" fill="var(--fill-0, #FFFFFE)"/>
<path fill-rule="evenodd" clip-rule="evenodd" d="M619.999 87.9085L601.688 38.5283C605.489 35.6479 608.449 30.1234 609.765 24.6261C611.043 19.2788 612.721 3.65918 612.721 3.65918C609.102 3.65918 599.044 3.65918 597.746 3.65918C597.655 5.25158 597.329 10.5944 596.86 16.0281C596.169 24.0855 593.84 31.5136 585.747 31.5136H579.503C579.492 30.8389 579.503 3.65918 579.503 3.65918H564.277V87.9358H579.503V45.1478C579.503 45.1478 587.558 45.1569 588.696 45.1478L603.653 87.9085H619.999Z" fill="#FFFFFE"/>
</g>
</g>
</svg>
