<svg preserveAspectRatio="none" width="100%" height="100%" overflow="visible" style="display: block;" viewBox="0 0 620 95.1825" fill="none" xmlns="http://www.w3.org/2000/svg">
<path id="logo-horizontal" fill-rule="evenodd" clip-rule="evenodd" d="M43.1182 79.7201C43.9981 78.0021 44.7021 75.4249 44.8781 73.535C44.8781 73.535 45.934 61.5084 46.11 57.5569C46.11 54.8079 43.6461 48.6228 42.4142 45.7021C40.2878 40.9969 36.6771 39.5243 31.3062 37.3338C30.009 36.8047 28.6092 36.2338 27.1028 35.5654C23.055 33.8473 13.1994 30.2393 13.1994 30.2393C11.2635 29.5521 10.5595 27.6622 11.2635 25.7723C11.9675 23.8824 14.4314 23.1952 16.1913 23.8824C19.1591 24.9104 21.9706 25.9893 25.4191 27.3126C28.3101 28.422 31.6488 29.7032 35.9025 31.2702C41.7637 33.4579 44.5855 32.0191 48.5028 30.0216L48.7499 29.8957C49.047 29.7326 49.346 29.5752 49.6441 29.4183C52.1716 28.0879 54.6319 26.7929 55.2616 22.3361C55.4291 20.9463 55.9552 17.028 56.5177 12.8393L56.5179 12.8379L56.518 12.8369C57.1374 8.22353 57.8008 3.28287 58.0775 1.03187C58.0775 0.860066 57.9015 0.688257 57.7255 0.688257C54.9096 0.172832 52.0938 0.00102372 49.1019 0.00102372C21.9991 -0.170785 0 21.3053 0 47.592C0 69.4116 15.1354 87.9669 35.7265 93.4648C36.0785 93.4648 36.4304 93.4648 36.4304 93.1212L43.1182 79.7201ZM97.6756 49.6532C96.6196 74.3936 75.8525 94.4952 50.5096 95.1825C48.5737 95.1825 46.6378 95.1825 44.7018 95.0107C44.3498 95.0107 44.1739 94.4952 44.3498 94.3234L51.2136 82.4686C52.2695 80.7506 52.9735 79.0325 53.1495 76.9708L54.5574 66.6623C54.7334 64.6006 55.7894 62.5389 57.7253 61.8516L61.0691 60.9926C63.0051 60.3054 64.589 60.9926 65.4689 62.7107C66.1729 63.9133 67.9327 67.3492 68.6367 68.7238L68.6368 68.724C69.1648 69.583 68.9888 70.6139 68.4608 71.1293C67.5887 72.1023 66.8268 72.9462 66.1127 73.7371L66.111 73.739C64.8084 75.1817 63.6648 76.4484 62.3011 78.0016C60.8931 79.5479 59.6612 81.9532 62.1251 84.0149C64.413 86.0766 66.7009 83.8431 68.1088 82.4686C69.8688 80.7506 72.6846 77.4862 74.4446 75.4245C76.0285 73.7064 76.9085 72.5038 77.0844 70.2702C77.0844 69.4112 77.0844 68.5522 76.7325 67.5213C76.4036 66.5582 75.1147 63.4208 73.4577 59.3873L73.4577 59.3873L73.4573 59.3863L73.4566 59.3845L73.4562 59.3837C71.5663 54.7831 69.1978 49.0176 67.2289 43.9835C64.061 35.7367 62.4771 27.3181 63.533 18.5559L65.293 2.74951C65.293 2.5777 65.4689 2.40589 65.8209 2.40589C85.0041 9.62185 98.5555 28.1772 97.6756 49.6532ZM39.7749 7.7324C34.6711 8.24782 30.7993 12.7148 31.3272 17.6973C31.8552 22.6797 36.431 26.2877 41.5348 25.9441C46.6386 25.4287 50.5104 20.9617 49.9825 15.9792C49.4545 10.9968 44.8787 7.21697 39.7749 7.7324ZM586.011 15.1563C567.128 15.1563 552.021 27.8938 552.021 47.49C552.021 67.0862 567.128 79.8237 586.011 79.8237C604.894 79.8237 620 67.0862 620 47.49C620 28.1388 604.894 15.1563 586.011 15.1563ZM570.858 48.2991C570.858 57.6582 577.384 63.6576 586.419 63.6576C595.455 63.6576 601.981 57.6582 601.981 48.2991C601.981 38.94 595.455 32.9406 586.419 32.9406C577.384 32.9406 570.858 38.94 570.858 48.2991ZM447.595 15.1563C428.712 15.1563 413.606 27.8938 413.606 47.49C413.606 67.0862 428.712 79.8237 447.595 79.8237C466.478 79.8237 481.585 67.0862 481.585 47.49C481.585 28.1388 466.478 15.1563 447.595 15.1563ZM431.624 48.2991C431.624 57.6582 438.15 63.6576 447.185 63.6576C456.221 63.6576 462.747 57.6582 462.747 48.2991C462.747 38.94 456.221 32.9406 447.185 32.9406C438.15 32.9406 431.624 38.94 431.624 48.2991ZM348.784 16.7736H397.225V79.5781H378.903V33.2752H364.596L363.09 54.7026C363.035 55.2805 362.981 55.8564 362.928 56.4294C361.777 68.8009 360.751 79.8244 342.76 79.8244H334.979L337.238 64.5543C346.33 64.3367 346.41 62.7735 348.035 30.9933L348.036 30.9851C348.25 26.7951 348.491 22.08 348.784 16.7736ZM257.993 47.49C257.993 27.8938 273.099 15.1563 291.982 15.1563C310.865 15.1563 325.971 28.1388 325.971 47.49C325.971 67.0862 310.865 79.8237 291.982 79.8237C273.099 79.8237 257.993 67.0862 257.993 47.49ZM292.391 63.6576C283.355 63.6576 276.829 57.6582 276.829 48.2991C276.829 38.94 283.355 32.9406 292.391 32.9406C301.426 32.9406 307.952 38.94 307.952 48.2991C307.952 57.6582 301.426 63.6576 292.391 63.6576ZM164.091 62.2071C154.101 62.2071 145.11 60.4944 145.11 47.2822C145.11 37.74 150.355 33.0913 160.844 33.336C165.839 33.336 171.583 34.3146 175.829 35.7827L181.823 20.6131C175.33 17.4323 167.588 15.9643 160.095 15.9643C138.617 15.9643 126.13 29.4212 126.13 48.0162C126.13 70.2813 141.614 79.8234 160.095 79.8234C167.088 79.8234 174.331 78.6001 180.325 76.6427L180.075 60.0051C175.579 61.2284 169.585 62.2071 164.091 62.2071ZM195.745 16.7736H250.62L247.392 32.8834H231.501V79.016H213.375V33.1275H195.745V16.7736ZM545.419 17.0177L545.468 16.7736V17.0177H545.419ZM545.419 17.0177H488.955L492.177 33.1275H508.041V79.016H526.382V32.8834H542.245L545.419 17.0177Z" fill="var(--fill-0, white)"/>
</svg>
