<svg preserveAspectRatio="none" width="100%" height="100%" overflow="visible" style="display: block;" viewBox="0 0 8.79243 12.8637" fill="none" xmlns="http://www.w3.org/2000/svg">
<g id="Subtract">
<path d="M4.50754 9.93993C4.48412 10.198 4.39047 10.55 4.2734 10.7847L3.38367 12.615C3.38367 12.659 3.34247 12.6618 3.29872 12.6619C3.68762 12.7725 4.04648 12.8297 4.45661 12.8637C4.42932 12.8438 4.41929 12.7973 4.43746 12.7791L5.3506 11.16C5.49108 10.9253 5.58473 10.6907 5.60815 10.4091L5.79546 9.00113C5.81887 8.71954 5.95936 8.43795 6.21691 8.34409L6.66177 8.22676C6.91932 8.13289 7.13005 8.22676 7.24712 8.46141C7.34077 8.62567 7.57491 9.09499 7.66856 9.28271C7.73881 9.40004 7.71539 9.54084 7.64515 9.61124C7.52904 9.74423 7.42761 9.85956 7.33255 9.96765C7.15926 10.1647 7.00711 10.3377 6.82567 10.5499C6.63836 10.7611 6.47446 11.0896 6.80225 11.3712C7.10663 11.6528 7.41101 11.3477 7.59832 11.16C7.83246 10.9253 8.20708 10.4795 8.44122 10.1979C8.65195 9.96322 8.76901 9.79896 8.79243 9.49391C8.79243 9.37658 8.79243 9.25925 8.7456 9.11845C8.70185 8.98692 8.53039 8.55844 8.30997 8.00759C8.05849 7.37915 7.74327 6.59139 7.48125 5.90365C7.0598 4.77729 6.84908 3.62747 6.98956 2.43072L7.21565 0.319763C7.21565 0.297918 7.22267 0.265547 7.26326 0.262634C7.02131 0.181637 6.81416 0.118225 6.55549 0.0595093C6.42571 0.0300505 6.36889 0.0154581 6.28476 4.99275e-05C6.27937 -0.000936517 6.26039 0.0130297 6.25499 0.0123027C6.2603 0.0198465 6.26357 0.0286145 6.26357 0.0373825C6.22676 0.344841 6.1385 1.01969 6.05608 1.64982C5.98126 2.22191 5.91123 2.75731 5.88895 2.94713C5.80518 3.55585 5.47785 3.73272 5.1416 3.91442C5.10194 3.93585 5.06216 3.95735 5.02264 3.97963L4.98977 3.99683C4.46861 4.26965 4.0932 4.46616 3.31343 4.16735C2.74752 3.95333 2.30335 3.77835 1.91873 3.62683C1.45997 3.4461 1.08589 3.29873 0.691082 3.15833C0.456944 3.06446 0.129151 3.15833 0.0354954 3.41645C-0.0581599 3.67457 0.0354955 3.9327 0.293048 4.02656C0.293048 4.02656 1.60422 4.51934 2.14274 4.754C2.34315 4.84529 2.52938 4.92327 2.70195 4.99552C3.41649 5.29471 3.89685 5.49584 4.17974 6.13847C4.34364 6.53739 4.67143 7.38216 4.67143 7.75761C4.64802 8.29732 4.50754 9.93993 4.50754 9.93993Z" fill="var(--fill-0, #14131C)"/>
<path d="M3.82881 0.952615C3.14981 1.02301 2.63471 1.63312 2.70495 2.31363C2.77519 2.99413 3.38395 3.48692 4.06295 3.43998C4.74195 3.36959 5.25706 2.75948 5.18682 2.07897C5.11658 1.39846 4.50782 0.882218 3.82881 0.952615Z" fill="var(--fill-0, #14131C)"/>
</g>
</svg>
