<svg width="358" height="79" viewBox="0 0 358 79" fill="none" xmlns="http://www.w3.org/2000/svg">
  <defs>
    <clipPath id="face1"><circle cx="28" cy="28" r="28"/></clipPath>
    <clipPath id="face2"><circle cx="89" cy="28" r="28"/></clipPath>
    <clipPath id="face3"><circle cx="210.5" cy="27.5" r="27.5"/></clipPath>
    <clipPath id="face4"><circle cx="268.5" cy="51.5" r="27.5"/></clipPath>
    <clipPath id="face5"><circle cx="330.5" cy="27.5" r="27.5"/></clipPath>
  </defs>
  <g clip-path="url(#face1)">
    <image href="../figma/bitrix-face-one.png" x="0" y="0" width="56" height="56" preserveAspectRatio="xMidYMid slice"/>
  </g>
  <g clip-path="url(#face2)">
    <image href="../figma/bitrix-face-two.jpg" x="61" y="0" width="56" height="56" preserveAspectRatio="xMidYMid slice"/>
  </g>
  <g clip-path="url(#face3)">
    <image href="../figma/bitrix-face-three.png" x="183" y="0" width="55" height="55" preserveAspectRatio="xMidYMid slice"/>
  </g>
  <g clip-path="url(#face4)">
    <image href="../figma/bitrix-face-four.png" x="241" y="24" width="55" height="55" preserveAspectRatio="xMidYMid slice"/>
  </g>
  <g clip-path="url(#face5)">
    <image href="../figma/bitrix-face-five.png" x="303" y="0" width="55" height="55" preserveAspectRatio="xMidYMid slice"/>
  </g>

  <rect x="37" y="40" width="31" height="31" rx="10" fill="#30A8F4"/>
  <image href="../figma/bitrix-file-icon.svg" x="43" y="46" width="19" height="19"/>

  <rect x="212" y="1" width="31" height="31" rx="10" fill="#30A8F4"/>
  <image href="../figma/bitrix-like-icon.svg" x="218" y="7" width="19" height="19"/>

  <rect x="274" y="24" width="31" height="31" rx="10" fill="#30A8F4"/>
  <image href="../figma/bitrix-brush-icon.svg" x="281" y="31" width="18" height="18"/>
</svg>
