<svg preserveAspectRatio="none" width="100%" height="100%" overflow="visible" style="display: block;" viewBox="0 0 9.68641 9.70305" fill="none" xmlns="http://www.w3.org/2000/svg">
<g id="Solid">
<path d="M7.27813 0.381789C7.84352 -0.141719 8.72154 -0.124838 9.2664 0.420012C9.81124 0.964862 9.82812 1.84289 9.30462 2.40828L6.44486 5.49686C6.26858 5.68725 6.18044 5.78244 6.07661 5.81929C5.98534 5.85169 5.88601 5.8536 5.79356 5.82473C5.6884 5.7919 5.59666 5.70017 5.41319 5.5167L4.16971 4.27321C3.98624 4.08974 3.8945 3.99801 3.86167 3.89285C3.83281 3.80039 3.83472 3.70107 3.86711 3.60979C3.90397 3.50597 3.99916 3.41783 4.18954 3.24155L7.27813 0.381789Z" fill="var(--fill-0, white)"/>
<path d="M3.47355 4.84278C3.28986 4.65909 3.19802 4.56724 3.08833 4.53508C2.9999 4.50915 2.88126 4.51488 2.79574 4.5492C2.68966 4.59177 2.62336 4.67227 2.49076 4.83326C2.44705 4.88634 2.40694 4.94196 2.37205 5.00104C2.25093 5.20612 2.18863 5.43572 2.18561 5.66617C1.61458 5.61754 1.02677 5.81171 0.589802 6.24868C0.128351 6.71013 0.154256 7.35944 0.171917 7.8021L0.174173 7.85851C0.194131 8.35596 0.208871 8.72335 0.0492633 9.03475C-0.0218418 9.17348 -0.0156286 9.33921 0.0656637 9.47222C0.146956 9.60524 0.291611 9.68636 0.4475 9.68636C0.569374 9.68636 0.708389 9.68998 0.85701 9.69384C1.19328 9.70259 1.5788 9.71261 1.92615 9.68495C2.43832 9.64417 3.01696 9.51727 3.43767 9.09655C3.87462 8.6596 4.06879 8.07181 4.02019 7.5008C4.25066 7.49779 4.48027 7.43549 4.68536 7.31436C4.74444 7.27947 4.80007 7.23936 4.85314 7.19564C5.01414 7.06305 5.09463 6.99675 5.13721 6.89067C5.17153 6.80514 5.17726 6.6865 5.15133 6.59807C5.11916 6.48839 5.02732 6.39654 4.84363 6.21286L3.47355 4.84278Z" fill="var(--fill-0, white)"/>
</g>
</svg>
