<svg preserveAspectRatio="none" width="100%" height="100%" overflow="visible" style="display: block;" viewBox="0 0 8.31484 10.1626" fill="none" xmlns="http://www.w3.org/2000/svg">
<path id="Solid" fill-rule="evenodd" clip-rule="evenodd" d="M5.65469 1.90221e-07H2.66015C2.28831 -5.52244e-06 1.98141 -1.02356e-05 1.73142 0.0204152C1.47176 0.0416297 1.23308 0.08716 1.00889 0.201392C0.66121 0.378542 0.378542 0.66121 0.201392 1.00889C0.08716 1.23308 0.0416297 1.47176 0.0204152 1.73142C-1.02339e-05 1.98141 -5.52113e-06 2.2883 1.90154e-07 2.66014V7.50243C-5.52113e-06 7.87427 -1.02356e-05 8.18117 0.0204152 8.43117C0.0416297 8.69082 0.08716 8.9295 0.201392 9.1537C0.378542 9.50137 0.66121 9.78404 1.00889 9.96119C1.23308 10.0754 1.47176 10.121 1.73142 10.1422C1.98141 10.1626 2.2883 10.1626 2.66014 10.1626H5.6547C6.02654 10.1626 6.33343 10.1626 6.58342 10.1422C6.84308 10.121 7.08176 10.0754 7.30595 9.96119C7.65363 9.78404 7.9363 9.50137 8.11345 9.1537C8.22768 8.9295 8.27321 8.69082 8.29442 8.43117C8.31485 8.18117 8.31484 7.87428 8.31484 7.50244V2.66014C8.31484 2.2883 8.31485 1.98141 8.29442 1.73142C8.27321 1.47176 8.22768 1.23308 8.11345 1.00889C7.9363 0.66121 7.65363 0.378542 7.30595 0.201392C7.08176 0.08716 6.84308 0.0416297 6.58342 0.0204152C6.33343 -1.02356e-05 6.02653 -5.52244e-06 5.65469 1.90221e-07ZM2.30968 2.30968C2.05456 2.30968 1.84774 2.51649 1.84774 2.77161C1.84774 3.02673 2.05456 3.23355 2.30968 3.23355H6.00516C6.26028 3.23355 6.4671 3.02673 6.4671 2.77161C6.4671 2.51649 6.26028 2.30968 6.00516 2.30968H2.30968ZM1.84774 4.61935C1.84774 4.36423 2.05456 4.15742 2.30968 4.15742H5.08129C5.33641 4.15742 5.54323 4.36423 5.54323 4.61935C5.54323 4.87448 5.33641 5.08129 5.08129 5.08129H2.30968C2.05456 5.08129 1.84774 4.87448 1.84774 4.61935ZM1.84774 6.4671C1.84774 6.21198 2.05456 6.00516 2.30968 6.00516H3.23355C3.48867 6.00516 3.69548 6.21198 3.69548 6.4671C3.69548 6.72222 3.48867 6.92903 3.23355 6.92903H2.30968C2.05456 6.92903 1.84774 6.72222 1.84774 6.4671Z" fill="var(--fill-0, white)"/>
</svg>
