<svg preserveAspectRatio="none" width="100%" height="100%" overflow="visible" style="display: block;" viewBox="0 0 358 54.9602" fill="none" xmlns="http://www.w3.org/2000/svg">
<path id="logo-horizontal" fill-rule="evenodd" clip-rule="evenodd" d="M24.8973 46.032C25.4054 45.0399 25.8118 43.5518 25.9135 42.4606C25.9135 42.4606 26.5232 35.5162 26.6248 33.2344C26.6248 31.6472 25.2021 28.0758 24.4908 26.3893C23.263 23.6724 21.1781 22.8221 18.0768 21.5572C17.3278 21.2518 16.5195 20.9221 15.6497 20.5361C13.3124 19.5441 7.62161 17.4608 7.62161 17.4608C6.50377 17.0639 6.09729 15.9727 6.50377 14.8814C6.91026 13.7902 8.33296 13.3933 9.34917 13.7902C11.0628 14.3838 12.6863 15.0067 14.6775 15.7708C16.3468 16.4114 18.2746 17.1512 20.7308 18.056C24.1152 19.3193 25.7445 18.4885 28.0065 17.3351L28.1491 17.2624C28.3207 17.1682 28.4933 17.0773 28.6655 16.9867C30.1249 16.2185 31.5455 15.4708 31.9091 12.8973C32.0059 12.0947 32.3097 9.83185 32.6345 7.41299C32.9922 4.74894 33.3753 1.89571 33.5351 0.595824C33.5351 0.496619 33.4335 0.397413 33.3318 0.397413C31.7059 0.0997966 30.08 0.000591118 28.3524 0.000591118C12.7027 -0.0986144 0 12.3021 0 27.4805C0 40.0796 8.73945 50.7938 20.6292 53.9684C20.8324 53.9684 21.0356 53.9684 21.0356 53.77L24.8973 46.032ZM56.3998 28.6707C55.79 42.9563 43.7987 54.5634 29.1652 54.9602C28.0474 54.9602 26.9295 54.9602 25.8117 54.861C25.6085 54.861 25.5068 54.5634 25.6085 54.4642L29.5717 47.619C30.1814 46.6269 30.5879 45.6349 30.6895 44.4444L31.5025 38.4921C31.6041 37.3016 32.2139 36.1111 33.3317 35.7143L35.2625 35.2183C36.3803 34.8215 37.2949 35.2183 37.803 36.2104C38.2095 36.9048 39.2257 38.8889 39.6322 39.6825C39.9371 40.1786 39.8355 40.7738 39.5306 41.0714C39.0287 41.6314 38.59 42.1173 38.1789 42.5726L38.176 42.5758L38.1753 42.5767L38.1737 42.5784L38.1733 42.5789L38.1724 42.5798C37.4209 43.4123 36.7608 44.1433 35.9739 45.0396C35.1609 45.9325 34.4495 47.3214 35.8722 48.5118C37.1933 49.7023 38.5144 48.4126 39.3274 47.619C40.3436 46.6269 41.9695 44.742 42.9857 43.5516C43.9003 42.5595 44.4084 41.8651 44.5101 40.5754C44.5101 40.0794 44.5101 39.5833 44.3068 38.9881C44.1169 38.432 43.3728 36.6206 42.4161 34.2919L42.4161 34.2917L42.416 34.2915L42.4158 34.2911C41.3244 31.6343 39.9564 28.3044 38.8193 25.3969C36.9901 20.6351 36.0755 15.774 36.6852 10.7145L37.7014 1.58762C37.7014 1.48841 37.803 1.38921 38.0063 1.38921C49.083 5.55584 56.9079 16.27 56.3998 28.6707ZM22.9668 4.46484C20.0198 4.76245 17.7841 7.3418 18.089 10.2188C18.3938 13.0957 21.036 15.179 23.983 14.9806C26.93 14.683 29.1657 12.1037 28.8608 9.2267C28.556 6.34974 25.9138 4.16722 22.9668 4.46484ZM338.374 8.75154C327.47 8.75154 318.748 16.1064 318.748 27.4217C318.748 38.7369 327.47 46.0918 338.374 46.0918C349.277 46.0918 358 38.7369 358 27.4217C358 16.2479 349.277 8.75154 338.374 8.75154ZM329.624 27.8889C329.624 33.293 333.392 36.7572 338.61 36.7572C343.827 36.7572 347.595 33.293 347.595 27.8889C347.595 22.4847 343.827 19.0205 338.61 19.0205C333.392 19.0205 329.624 22.4847 329.624 27.8889ZM258.45 8.75154C247.547 8.75154 238.824 16.1064 238.824 27.4217C238.824 38.7369 247.547 46.0918 258.45 46.0918C269.354 46.0918 278.076 38.7369 278.076 27.4217C278.076 16.2479 269.354 8.75154 258.45 8.75154ZM249.228 27.8889C249.228 33.293 252.996 36.7572 258.213 36.7572C263.431 36.7572 267.199 33.293 267.199 27.8889C267.199 22.4847 263.431 19.0205 258.213 19.0205C252.996 19.0205 249.228 22.4847 249.228 27.8889ZM201.395 9.68543H229.365V45.9499H218.786V19.2138H210.525L209.655 31.5863C209.624 31.9177 209.593 32.248 209.562 32.5766L209.562 32.5771L209.562 32.5786L209.562 32.5806L209.562 32.5834C208.897 39.727 208.305 46.0922 197.916 46.0922H193.424L194.728 37.2749C199.977 37.1493 200.024 36.2466 200.962 17.8961C201.086 15.4755 201.226 12.7514 201.395 9.68543ZM148.97 27.4217C148.97 16.1064 157.693 8.75154 168.596 8.75154C179.5 8.75154 188.222 16.2479 188.222 27.4217C188.222 38.7369 179.5 46.0918 168.596 46.0918C157.693 46.0918 148.97 38.7369 148.97 27.4217ZM168.832 36.7572C163.615 36.7572 159.847 33.293 159.847 27.8889C159.847 22.4847 163.615 19.0205 168.832 19.0205C174.049 19.0205 177.818 22.4847 177.818 27.8889C177.818 33.293 174.049 36.7572 168.832 36.7572ZM94.7494 35.9196C88.981 35.9196 83.7895 34.9306 83.7895 27.3017C83.7895 21.7918 86.8179 19.1075 92.8746 19.2488C95.7588 19.2488 99.0756 19.8139 101.527 20.6616L104.988 11.9024C101.239 10.0658 96.7683 9.21811 92.442 9.21811C80.0401 9.21811 72.8297 16.9884 72.8297 27.7255C72.8297 40.5818 81.7706 46.0916 92.442 46.0916C96.4799 46.0916 100.662 45.3852 104.123 44.255L103.979 34.6481C101.383 35.3545 97.9219 35.9196 94.7494 35.9196ZM113.027 9.68543H144.713L142.849 18.9875H133.673V45.6254H123.207V19.1285H113.027V9.68543ZM314.935 9.82637L314.964 9.68543V9.82637H314.935ZM314.935 9.82637H282.332L284.193 19.1285H293.352V45.6254H303.943V18.9875H313.103L314.935 9.82637Z" fill="var(--fill-0, white)"/>
</svg>
