<svg preserveAspectRatio="none" width="100%" height="100%" overflow="visible" style="display: block;" viewBox="0 0 9.91227 10.1626" fill="none" xmlns="http://www.w3.org/2000/svg">
<path id="Solid" d="M4.8661 0C4.5335 0 4.2321 0.195874 4.09702 0.499807L2.54457 3.99282C2.5069 4.07757 2.48724 4.12127 2.47112 4.15204L2.46968 4.15475L2.46662 4.15496C2.43196 4.1572 2.38403 4.15742 2.2913 4.15742L1.92233 4.15742C1.67882 4.15741 1.46875 4.1574 1.29572 4.17154C1.11309 4.18646 0.931452 4.21941 0.756665 4.30846C0.495909 4.44133 0.283907 4.65333 0.151045 4.91408C0.0619867 5.08887 0.0290433 5.27051 0.0141223 5.45314C-1.42555e-05 5.62616 -7.48308e-06 5.83622 3.68191e-07 6.07972V8.24026C-7.48308e-06 8.48376 -1.42546e-05 8.69384 0.0141223 8.86686C0.0290433 9.04949 0.0619867 9.23113 0.151045 9.40592C0.283907 9.66667 0.495909 9.87867 0.756665 10.0115C0.931452 10.1006 1.11309 10.1335 1.29572 10.1485C1.46874 10.1626 1.67881 10.1626 1.92232 10.1626C2.13625 10.1626 2.30968 9.98915 2.30968 9.77522L2.30968 6.00516C2.30968 5.75004 2.51649 5.54323 2.77161 5.54323C3.02673 5.54323 3.23355 5.75004 3.23355 6.00516L3.23355 9.42348C3.23355 9.68219 3.23355 9.81155 3.2839 9.91036C3.32818 9.99728 3.39885 10.0679 3.48577 10.1122C3.58458 10.1626 3.71394 10.1626 3.97265 10.1626H6.89189C7.21468 10.1626 7.48267 10.1626 7.70316 10.1458C7.93338 10.1283 8.14559 10.0907 8.35048 9.99786C8.67086 9.85269 8.94316 9.61908 9.13536 9.3245C9.25827 9.13611 9.32768 8.93208 9.38001 8.70721C9.43013 8.49183 9.47087 8.22697 9.51994 7.90795L9.76737 6.29971C9.83239 5.87708 9.88571 5.53057 9.90456 5.24778C9.92402 4.95601 9.91129 4.68376 9.81176 4.4228C9.65893 4.02211 9.37148 3.68705 8.99868 3.47507C8.75589 3.33701 8.48874 3.28304 8.19741 3.2579C7.91503 3.23354 7.56447 3.23354 7.13682 3.23355H6.74426C6.60728 3.23355 6.53233 3.23319 6.47848 3.22879L6.47239 3.22826L6.47186 3.22217C6.46746 3.16831 6.4671 3.09336 6.4671 2.95639V1.60099C6.4671 0.716789 5.75031 0 4.8661 0Z" fill="var(--fill-0, white)"/>
</svg>
