<svg preserveAspectRatio="none" width="100%" height="100%" overflow="visible" style="display: block;" viewBox="0 0 358 55" fill="none" xmlns="http://www.w3.org/2000/svg">
<g id="PB / logo" clip-path="url(#clip0_0_5)">
<g id="Vector">
<path fill-rule="evenodd" clip-rule="evenodd" d="M154.76 19.4054C154.779 18.4063 154.964 11.402 154.978 10.456H156.659C163.154 10.456 164.244 11.6196 164.848 19.4054H154.76ZM173.243 15.5165C172.225 6.80462 168.193 2.27087 158.674 2.27087C149.821 2.27087 146.567 2.27087 146.567 2.27087L144.921 51.4839H153.743C153.743 51.4839 154.557 28.6587 154.604 27.5786C155.572 27.5786 164.834 27.5906 165.752 27.5906C165.854 28.5844 167.521 51.4839 167.521 51.4839H176.629C176.629 51.4839 173.494 17.6766 173.243 15.5165Z" fill="var(--fill-0, #FFFFFE)"/>
<path fill-rule="evenodd" clip-rule="evenodd" d="M0 2.27087V51.4733H8.91604V10.4534H19.9657V51.4733H28.8961V2.27087H0Z" fill="#FFFFFE"/>
<path fill-rule="evenodd" clip-rule="evenodd" d="M94.3231 19.4068H89.469C87.4622 19.4068 85.9732 18.9503 85.0241 18.0322C84.3547 17.3926 84.0266 16.5276 84.0266 15.3998V2.27087H75.0896V16.3179C75.0896 19.5567 76.3525 22.2952 78.8443 24.4712C81.3008 26.626 84.309 27.7113 87.7995 27.7113H94.3231V51.4733H103.247V2.27087H94.3231V19.4068Z" fill="#FFFFFE"/>
<path fill-rule="evenodd" clip-rule="evenodd" d="M113.126 2.27087V10.4534H120.536V51.4733H129.562V10.4534H136.972V2.27087H113.126Z" fill="#FFFFFE"/>
<path fill-rule="evenodd" clip-rule="evenodd" d="M46.1754 26.9604C46.1754 26.9577 46.1754 26.9577 46.1754 26.955C46.2486 13.6378 49.4921 9.25527 52.9134 9.18893C56.3334 9.25527 59.5769 13.6378 59.6501 26.955C59.6501 26.9577 59.6501 26.9577 59.6501 26.9604C59.5769 39.9672 56.3334 44.4107 52.9134 44.477C49.4934 44.4107 46.2499 39.9672 46.1754 26.9604ZM68.5334 25.136C68.3792 18.0972 67.1882 13.0526 65.3435 9.4702C62.436 3.34693 57.8041 1.06082 53.0219 1.00244C53.0114 1.00244 53.001 0.999784 52.9918 0.999784C52.9657 0.999784 52.9395 1.00111 52.9134 1.00111C52.8872 1.00111 52.8611 0.999784 52.8349 0.999784C52.8245 0.999784 52.8153 1.00244 52.8049 1.00244C48.0213 1.06082 43.3907 3.34693 40.4832 9.4702C38.6373 13.0526 37.4476 18.0972 37.292 25.136C37.292 25.1466 37.2724 26.7136 37.2724 26.7268L37.2737 26.7255C37.2789 31.112 37.7587 35.3631 38.7 38.7876C41.1486 48.8714 46.8068 52.4366 52.7134 52.5454C52.7539 52.5454 52.797 52.5507 52.8349 52.5507C52.8611 52.5507 52.8872 52.5481 52.9134 52.5481C52.9395 52.5481 52.9657 52.5507 52.9918 52.5507C53.0297 52.5507 53.0742 52.5454 53.1134 52.5454C59.0199 52.4366 64.6781 48.8714 67.1267 38.7876C68.068 35.3631 68.5491 31.112 68.5531 26.7255L68.5544 26.7268C68.5544 26.7136 68.5334 25.1466 68.5334 25.136Z" fill="var(--fill-0, #FFFFFE)"/>
</g>
<g id="Vector_2">
<path fill-rule="evenodd" clip-rule="evenodd" d="M253.918 18.9415C253.937 17.9525 254.117 11.0282 254.133 10.093L255.69 9.99327C262.09 9.99327 263.261 11.2459 263.857 18.9415H253.918ZM272.126 15.0957C271.124 6.48586 267.151 2.00258 257.772 2.00258C249.05 2.00258 245.844 2.00258 245.844 2.00258L244.222 50.655H252.914C252.914 50.655 253.716 28.0904 253.764 27.0214C254.717 27.0214 263.843 27.0319 264.746 27.0319C264.846 28.0156 266.488 50.655 266.488 50.655H275.462C275.462 50.655 272.375 17.2324 272.126 15.0957Z" fill="var(--fill-0, #FFFFFE)"/>
<path fill-rule="evenodd" clip-rule="evenodd" d="M305.465 2V17.5485H293.405V2H284.635V50.6629H293.405V25.6389H305.465V50.6629H314.235V2H305.465Z" fill="#FFFFFE"/>
<path fill-rule="evenodd" clip-rule="evenodd" d="M218.693 43.1313C217.839 43.1313 215.692 42.9306 215.692 42.9306V25.8055C215.692 25.8055 216.383 25.6415 217.137 25.6415C221.593 25.6415 226.861 25.3739 226.861 34.3772C226.861 42.6316 221.074 43.1313 218.693 43.1313ZM219.757 17.9229C218.244 17.9229 216.899 17.9583 215.692 18.0173V10.0935H231.458V2.00313H206.906V50.6451C206.906 50.6451 211.519 50.6451 220.241 50.6451C233.534 50.6451 235.595 38.6118 235.595 34.1574C235.595 28.8845 233.547 17.9229 219.757 17.9229Z" fill="var(--fill-0, #FFFFFE)"/>
<path fill-rule="evenodd" clip-rule="evenodd" d="M358 50.6472L347.427 22.1341C349.622 20.4709 351.331 17.281 352.091 14.1067C352.829 11.019 353.797 2 353.797 2C351.708 2 345.9 2 345.151 2C345.098 2.91948 344.91 6.00453 344.639 9.14204C344.24 13.7945 342.895 18.0837 338.222 18.0837H334.617C334.611 17.6941 334.617 2 334.617 2H325.825V50.6629H334.617V25.9563C334.617 25.9563 339.268 25.9616 339.925 25.9563L348.562 50.6472H358Z" fill="#FFFFFE"/>
</g>
</g>
<defs>
<clipPath id="clip0_0_5">
<rect width="358" height="55" fill="white"/>
</clipPath>
</defs>
</svg>
